<mxfile host="app.diagrams.net" modified="2023-10-14T23:34:00.352Z" agent="Mozilla/5.0 (Windows NT 10.0; Win64; x64) AppleWebKit/537.36 (KHTML, like Gecko) Chrome/118.0.0.0 Safari/537.36" etag="QANy0rqSNn4z8jbj7CU5" version="22.0.4" type="github">
  <diagram name="PÃ¡gina-1" id="Hry41-xHgYCROxNFoiQR">
    <mxGraphModel dx="1764" dy="964" grid="1" gridSize="10" guides="1" tooltips="1" connect="1" arrows="1" fold="1" page="1" pageScale="1" pageWidth="827" pageHeight="1169" math="0" shadow="0">
      <root>
        <mxCell id="0" />
        <mxCell id="1" parent="0" />
        <mxCell id="BwzqPjI1iRtZFROYLctg-22" style="edgeStyle=orthogonalEdgeStyle;shape=connector;curved=1;rounded=1;orthogonalLoop=1;jettySize=auto;html=1;exitX=0.5;exitY=1;exitDx=0;exitDy=0;entryX=0.5;entryY=0;entryDx=0;entryDy=0;labelBackgroundColor=default;strokeColor=default;strokeWidth=2;align=center;verticalAlign=middle;fontFamily=Helvetica;fontSize=11;fontColor=default;endArrow=classic;" edge="1" parent="1" source="BwzqPjI1iRtZFROYLctg-2" target="BwzqPjI1iRtZFROYLctg-21">
          <mxGeometry relative="1" as="geometry" />
        </mxCell>
        <mxCell id="BwzqPjI1iRtZFROYLctg-2" value="&lt;div style=&quot;line-height: 163%;&quot;&gt;&lt;h1 style=&quot;background-image: none; background-position: initial; background-size: initial; background-repeat: initial; background-attachment: initial; background-origin: initial; background-clip: initial; border: none; box-sizing: border-box; margin: 0.25em 0px 0.25rem; padding: 0px; vertical-align: baseline; line-height: 24.96px; text-align: start;&quot; class=&quot;type__headline__xs&quot;&gt;&lt;font color=&quot;#b2f8ff&quot; face=&quot;Helvetica&quot; style=&quot;font-size: 44px;&quot;&gt;Start of Process&lt;/font&gt;&lt;br&gt;&lt;/h1&gt;&lt;/div&gt;" style="text;html=1;strokeColor=#B2F8FF;fillColor=#000000;align=center;verticalAlign=middle;whiteSpace=wrap;rounded=1;fontSize=20;fontFamily=Architects Daughter;glass=0;labelBackgroundColor=none;fontColor=#ffffff;gradientColor=#474747;strokeWidth=2;" vertex="1" parent="1">
          <mxGeometry x="600" y="100" width="486" height="80" as="geometry" />
        </mxCell>
        <mxCell id="BwzqPjI1iRtZFROYLctg-3" value="" style="endArrow=none;html=1;rounded=0;" edge="1" parent="1">
          <mxGeometry relative="1" as="geometry">
            <mxPoint y="80" as="sourcePoint" />
            <mxPoint x="1650" y="80" as="targetPoint" />
          </mxGeometry>
        </mxCell>
        <mxCell id="BwzqPjI1iRtZFROYLctg-4" value="" style="resizable=0;html=1;whiteSpace=wrap;align=right;verticalAlign=bottom;" connectable="0" vertex="1" parent="BwzqPjI1iRtZFROYLctg-3">
          <mxGeometry x="1" relative="1" as="geometry" />
        </mxCell>
        <mxCell id="BwzqPjI1iRtZFROYLctg-27" value="" style="edgeStyle=orthogonalEdgeStyle;shape=connector;curved=1;rounded=1;orthogonalLoop=1;jettySize=auto;html=1;labelBackgroundColor=default;strokeColor=default;strokeWidth=2;align=center;verticalAlign=middle;fontFamily=Helvetica;fontSize=11;fontColor=default;endArrow=classic;entryX=0;entryY=0.5;entryDx=0;entryDy=0;" edge="1" parent="1" source="BwzqPjI1iRtZFROYLctg-5" target="BwzqPjI1iRtZFROYLctg-19">
          <mxGeometry relative="1" as="geometry">
            <mxPoint x="1143" y="482.5000000000002" as="targetPoint" />
          </mxGeometry>
        </mxCell>
        <mxCell id="BwzqPjI1iRtZFROYLctg-5" value="&lt;img alt=&quot;Code4rena | Brahma&quot; src=&quot;data:image/jpeg;base64,/9j/4AAQSkZJRgABAQAAAQABAAD/2wCEAAkGBxISEhASEhIVFhUXFRUXFRYVFRUXFhgXFRUWFhUXFxUYHSggGBolGxUVITEjJSkrLi4uFx8zODMtNygtLisBCgoKDg0OGxAQGy0iICYtLS0tLS0tLS0tLS0tLS0tLS0tLS0tLS0tLS0tLS0tLS0tLS0tLS0tLS0tLS0tLS0tLf/AABEIAOEA4QMBIgACEQEDEQH/xAAcAAEAAgIDAQAAAAAAAAAAAAAABQYBBAIDCAf/xABCEAABAwIEAwQGCAQEBwEAAAABAAIDBBEFITFBBhJRByJhcRMyQoGRsRQjUmJyocHRM0OC8FNzkuEWFyQ1VKLSFf/EABsBAQACAwEBAAAAAAAAAAAAAAAEBQIDBgEH/8QAMxEAAgICAAUBBgQFBQAAAAAAAAECAwQRBRIhMUFREyJhcYGhBhQykSNCsdHwUmKiweH/2gAMAwEAAhEDEQA/APuKIiAIiIAsEqMx3GaekidPUSBjG7nUnZrQMy49BmvP/H/azUVZdDTc0EGYNj9ZIPvOHqjwHxQH1LjPtUoqLnjjcJ5hlyMI5Gno9+l77C5Xw/iztErq8kSylkW0UZLWf1Wzf78vBVFzrm64IAiIgCIiAIiIAiIgCIiALIWEQFp4U45rcPI9BKeTeJx5oz/SfV8xZfbODe2CjquWOpIp5Tldx+qcfxn1f6l5qWQUB7ga4HRcl5e4D7T6rDyI3kzU/wDhuObf8tx9X8Jy8l6F4Z4kpq+ITU0oePabfvsJ2e3VvyOyAnEREAREQBERAEREAVZ404xpsNh9JM67zcRRD15HDp0aN3HL3px3xZDhtM6aTvPOUUQPekd08GjUnoDvZeW+JMemrZ3zzv5nOvl7LRfJrRs0IDc4x4tqMQm9LM7L2Ix6jAdmjr1OqrZKEogMIiIAiIgCIiAIiIAiIgCIiAIiIAiIgMgqZ4a4iqKGZs1O8tcMiNWuH2XN9oKFWQUB6w4A47gxOK7e5O0D0sR1F/aafaYc/LeyuIK8X4Li0tLNHPC8sew3BH5gjcHcL0/2d8cRYnBfJk7LCaK+nR7erD+WaAuSIiAIiIAozHcYipIJaid3KxguepOjWtG7ibABSRK829tPGxq6j6NC76iBxFwcpJBk53kNB4goCp8bcVTYjUPmlyGkbL3axmzR49T1VcJQlYQBZCBS+D4X6TvO9UfErdRjzvmoQXU9S29IibLFldo8Lg09GP78Vq1PDTHfw3Fp6HMfurKzguRFbWn8jyXu9yprC3a3D5IjZ7fI6g+9adlUyhKL1JaYT2YREWICIiAIiIAiLIQGEXOy2KWjfIe6PfssoQlN8sVtnqTb0jVss2Vhp8DYPXJJ6DRSDcKi05ArevgmTJbel82bXRJLqU1YU3jWD+iHOy/LexvqP9lCqsvonRNwmtM0gFTHDOPzUU7J4TZzTps4H1mu8CFDLIK0g9icJcSRYhTR1EPtZPYfWY8esx3l+YzU8vK/ZVxo7Dqoc5/6eUhsw6dJLdRv4eS9SRSBwBBuCAQRoQdCgOxERAfPu2Liz6DRujjdaecFjLatZpI8dDbIHqV5fc66uHafxN9PrppGn6phMcP4GG3N/Ubny5eipqAIiIDmFbMLyij8lUQrJw7PzMMZ9nMeR1V1wK1RydPytL5kjG1z6Jhjl3sctMGy6KuvMRBIuw6kagrqb7I1R5pdjPIq13JhzQ4crgCOhVfxThzV0OfVh2/D1UzSVTXjmabj5e5bTHKHkYtWTHb6+jKyacHtHzd7SMiLHddav2K4MycEjuv2dsfNU2tpHxOLXtIP5HxHVcrl4NmPLr29TZXap/M01kLsawnIDP8AP4LbZhNQ71YJj5Rv/ZQ0m+xlKcY/qejQsi+iYZ2ZSyRB8kojc4XDCCSPxeKpuNYXJTSvhkHeb00N9CDuFnKqcVtoj0ZtF83CuSbXcjVza0k2C7qWmdIbNFz8lZ8PwxkQuc3dTp7gpWFgW5Mvd6L1LGjHla+nb1I7D8E0dLl9391MtsBZoAHgsvcuMkjWC7iAP72XX42JRiQ2vq2T9V0x0v3OcbFtMYo7DaszOJaLMGVzq4+ewUwxi2V3xujzQ7FXkZG0aOMMH0eW/wBk/HZUMq5cW1QbE2Pd5ufwjP8AM2VMK5TjFqnfpeEaKm2tswiIqk2nJhXovsI4s+kUxo5XXkgH1ZO8J0H9JuPKy85qf4Lx99DVw1DSbNd3wPajPrtP9PyQHsK6Kuf8b4f/AOTH/qH7rCA8hLCIgCIiAytugqjG8OHv8QdVprkFlCbhJSj3R6m09ovFw4AjQ6LrmiD2lrtCorh6u/luP4f1CmnBd5iZMMyjfr0aLeLjdXzfuVTmkp5CAbEfAj9VZsKxhstge6/p18v2WpilF6RuXrDTxHRR+A4S6Z+ZLWg5u3vfQeK5+ftuHX8sesH2X+ehT5KVKbn2L3QUskruVjSTv0HmdlNy8KUxYDVkG2evL/7alQ7uLYKW1PFbm0LtWtPifaK6ZKp0h5nuLidzn8BorKM/ziaT9307s5udeZkvmi/Zw8f6n/Ykq3iCgw8D0NLroWMjbc+L3Z3URP2rOv3KZlvvSG/5ZLtfTiRpY9t2nUH5+ar8vBZLiWygN2BBuPfdV2ZiX19av0/DwSMThONdLknFzl/ube/vo+j4XxnRyxekdK2Mgd5jjYtPh1C+bcTVAxCskliFowGtDjuG3z8yuUfBjwf4oLdwLi6kX0hiAaG8o26ed1ji408l6u6JePLLnhf4WrxLpXNNfB+nojWpadkTeVo8zufNHOujnLjhVXTyTeie+18mk5NLjbK66Ky2nDrXN0XhF1lZUKK9pdF4Rp1+JNiy1d06eag2+kqHht7knLoB+gUpxRw7JTP5s3Mccjqb/ZPipPAcL9Ey7h33DPwH2VzrnfxC/kn0gu6+Hj5spXmRugrYvo+xvUdI2NjWNGQH57krbNmgudkALklco2Kt8XYp/IYehefk1W+TkRxqdrx0SIG3bPlRAYvXGaRzzpo0dANFHrkVxXGzk5Scn3LFLS0ERFiehZBWEQHK6LiiAIiIAiIgCysIgOxrrEEaq24VXelbn6w18fFU9bNJUGNzXDb8+oU/h+bLFt5vD7okY9zqlvx5LgWrUxCSRkbjGNfWtqOtltU1Q2Rgc33joVktXYXVV5lPLvo10ZPyMeF0PVeCpUNI+VwY0eZ2HiVfMOpRExrOYutuf08FrUULYwQ0AXzK22vVLh4n5Z82+v2M6OH18n8Tq39jcY5d7CtFr1sRvV1CasRRZ+DKmW/Hhm1dZ5gcjmutjlki2igX4+nuJb8K4w56pvfXw/X4P4kLxFgznsJgNjmSzr5dFQHAgkb6EHwX1lr1B4rgcckzZTb77ftEaFVOTi25E009v4m/iuLGMfbrp6r+xO8EVf0qmEFSLkD6tx9ZzG5An7w2K6quhMUjmO2OvUHQrppHFjmubqLEW8NlYOKpWfRhVWvytubdDmB/qVpXFYiSb6a6v4nzq2Tx8vUP02ePSX/vkp2P4oKePL13eoOn3lQHyEkk5km5O9+q78RrHzSOe85k6dBsFplc7mZbyJ78LsdJRT7OOvPkLCIoZuCIiAIiIAiIgCIiAIiIAiIgMhSGFYVLUvbHCwucdhpYaknYKPC+hdk2IxRTSseQ18jQGE5AkHNt/G4WdcVKSTI2ZdOmiVkI7aXYjajh2sw8CSWMGI25ixwcBfr0K2hICGuBuDmF9C43xGKGknEhF3sc1jd3OOQy8Oq+S4G7uO/FkOmq6DBudNn5ddYtfsZfhril+XU/arXXp319Cba9djXrTa9djXq2cTrFM3GvXfHLZR7Xrta9a9ae0ezUbIuMltMlo33XexyiYZrLfifdSozU18TlOIYLoe11R3SNtmFway67mOWeW2a8jBQ7IhWcRutiq7HvXRGnNI2NrnONmtzP99VJcKVwr6OshIy7zWjflcy7ffcKgcZ17zL6LRgsfMncqxdjUv1tS3bkjPvDrLnsnN9rf7Jfp7fUgcSw3XiSsl+qLTXw00fOXixz/s7rrK38ZaBPOBoJZB8HuWgqI6CL3FP1MIiIehERAEREAREQBERAEREAREQGQt7Cn2mhJ2kjPwe1aC5hDyUeZNep9O7ZIifokm3K9vxs79FTcFuGHI6r6JxLTfT8Oo5tLCN7rbXYWvHxVWrIA1jWtFg3TyXQYWNOdzvXbX77NH4ZqlLE2/5HKL+jZrBy5By1g5dgcrhSOkUjvD12tetQOW3SQF58Nys173RGTtUFzM2aZhcfDcqVhjsLBdcEIAAC2mBblFQRzXEM93PlXYw02XYHXUdPiI5rN03PU/stmOTdH7xDuxLK4qc1rZT+MKB4l9Jqx1gCNjbQr6f2fUEUdFA6MC728z3blx2v4aWVdmjbI1zXi7SLFV1uL1mGExxPvESS3maHN+GxXN5WP+Xtd2txf2IWfC3iFHslLU9769pEn2t0ETJYZGAB72uLwN7E2cR46L5yVIYviktTIZJnlztL7ADYDYKPKprZqU20tFtg0Sox4VTe2lrZhERayUEREAREQBERAEREAREQBEWUBhbVHTOkeGt1P5LpY0kgBXHB6AQsz9c+t4dApuBhyybOXx5JOLju6evHku3BYYad9G43Fja+pD7B3wOarOIQujc+N4zaSDfex19+q5Ula6J7XtOYPxB1B81u8Wt+mQemgP1gFnAauAzLfxBdPZKOFt691roviiFY3wvPlKK/hW/aa/uVBsoJIab2K5hygIpCx1wVZ8IpDKA9wIb8/wDZQMLL/MPl1plhHJSW5HbQ0peejdyp2CEAADRIYgAABl0WyAALnIDU9FdxSgipzMyVj19jLG77KIxPEubusPd3O5t+i6cTxPn7jDZnXd3+yjWuWqVhK4fgcr9rcuvhGyHLEeONjkERI5dz0K1MRdIxhc0eZ3CrRNySVVZ+fKiShBdf87E7NtU4+zPpzH6LFfRMnYY376HcHYhR2BwyshZ6bK/qg6hp0BUqxynVzhk1b10fdHL2JKTlB9n4PmtfRuie5jxmPgRsQtNfRuIMKFRHcD6xubfEDVpXz57CCQdRe/6rl83FePZy+PBZ49ytjvz5OpFmywoZvCIiAIiIAiIgCLKwgCIiALk1cVu4dTGR7W/HyWUIOclFd2epbekS3DtD/Odtk3z6qckkXHJoAGQAsF0TzBrS46D+7LusPGhiU6fjq2XkeWivlX1+Zq4rW+jbl6x0/dRmCYxJC/IktccwNb9R4rWs+okNhcnbYBWbCcGbFZx7z+uw8v3VDY7+I380ekF2+n/ZSZUldvnW0dsmFxSSCUstfNzdGknchSkbFljVxrKxkLC95t0G58AFcV1VYsHrp6sqpz0lCPU73ytY0ueQGjUlVHF+I3SHlaCIxt18XLdwMf8A6VZFDISIu84tHRjSSPEnLPZfR67gqikjMYgYw27rmCzgdjfdVN+bdfv2L0l9yHfxCjAtirtuT69OyPjlPine7zcvDVT0bWkAssRspiLspdcc9S23g03/ADUpTcK4fRi81Tcbhz2NBI6MGZXuBm3Uy/jLcfV6LKv8R4q93bn8Env+hXqOB8juRrXPd0A+fT3qw4dwfT0t6mptzDMM1Y13gD6zl3f8W00bSyjjabb8vK3zIGbveq5WYlLM7mkeXHYeyB90aBWs6nmpNpKPh939DXZHO4j/AC+xr/5v4dOxXuKMfdUSWaCyNp7o0JIPrHofDZTPD+KemZZx77dfEdVp4jhbJcx3X9evn+6r7DJTyNNrEfAjdUrjdw+7mn1g+78Ev8rCFaqitJH0VjlV+L8KA+vYMj648dnKeoqoSMa9uhHw8FsvaHNc1wuCCCPAq2yseORVr6r5lcm6Z837ny0rgpHF6EwyOYdBm09WnT+/BRy4+cXFuL7otk01tBERYnoRFkBAYRZsiAtHaHw2cPrZoLdy5dEesbs2/DNvuVWXpbtx4U+lUZqY23lpwXEDV0Wr/wDT63uK81EIDCIiAyFZeG4eVjn7uNh5C/6qttVtwv8AhR26K54HWp5O34TZJxNe02/Bs3uteroTKQCbMHxJ/ZbsbFtMYuqyK42x5JdjPJuT6M6qOkawcrRYfPzW4xq43DQSSABqSq9ivEurYPe//wCRsoWRlU4sevT0SKiblY9RJfFsZjgBHrP2b08/BUmurHyvL3uufl4ALoe8k3Judzuupctl5s8h9ei9DdXSofMkcJxGSnlZLGbOYbj4WII6EEq6Yj2mzPiLGRNY8ixeCTa+7RsfFfO7pdRY2SitRZqvwse+UZ2QTa7G/Jis7hYzSkeMjz+q0+b+/wBzuuCwsCSopdkbNNUujN2mysVBiLZPB24/ZVW65scRmFPweIWYsvd6ryjdXa4F4Y5c5YWyDleLj5eSr2H4zawk+P7qfhkBAINx4aLraMqjLh06+qff9jbJRmtxOvC6MwuIBvGeurT+qmGOWlG5dzHL2vHjVHkj2/oVl9WyL4xpeaISDVhsfwnL5qlFfQsbcPo81/s/nsvnxXL8XrUb9ryj3G2oaOKIiqiQFMcLYK+tqYaaMZyOAJ+y3VzvcL++yiWBegOwThT0cTq+RtnSgthuMxGD3neHM4ZdQAgLT/ytwz/BHxP7ortyBEAcL5Ly/wBr3BhoKovjH/TzEuj+6dXR+69x4eS9RKD4q4eir6aWmmGTh3Xe0x/svb5H4jJAeOSFhTPFGATUNRJTzDvNORGjmn1XN8CFDkIAFMYPigj7j/VvqNlDLK30ZE6JqcH1PU2n0LxHikFr+kb+vwWtUcSRt/hgvPU5D9z8FUbrF1Y28ayJx0tL5GMlzPqbtfiMkxu92WwGg9y07riiqZTlJ80ntnqWjJWERYgIiIAiIgCIiA5LZpK18Z7p92y1EWcJyg+aL0wWikx9hyeCPEZhSQxeG1/SN/X4KjXWbq2r41kRjqWmeye+5OY5jIlHIy/Le5J1cRpl0UGUXFVl987p88+5ilrsFkBFI4JhM1VMyGFnM95AA/U9ANytJ6T/AGa8IvxGqawgiFp5pnDZn2R4u0+K9V0sDY2MjY0Na1oa0AWADRYADyVf4D4Ujw2lZC0AyHvTSfbfv5NGgHQBWdAEREAREQFO7ROCYsTp+XJkzM4pLaH7DurD+WR2Xl/GsImpZXwzMLHtNiD+RB3B2K9oEKm9oPAcGJxZ9ydoPopQNPuvHtMP5IDygQsKZ4j4fnopnQzsLHDTo4faa7ceKhyEBhERAEREAREQBERAEREAREQBERAEREAWQgUjg2ETVUzIYGF73aAD4k9B4oDpw6hknkZHG0ue42a1ouSTsF6W7Lez9uGxekks6qkA53bRt/w2fqd/cnZn2cxYaz0slpKpws59u7GPsR/q7e2y+gAIAAsoiAIiIAiIgCIiAgeKuGKbEIjDUs5t2OGT2O+0123yO6868d9m1Thxc+xlp9pmjTPISN9k6Z6L1PZdckYcCHAEHIgi4I6EHVAeJC1cF6N407Gaao5paMinkOZZ/JJ8Bqz3ZeC+JcTcJ1dC8tqIXNF7B+sbvEP09yAr6LJCwgCIiAIiIAiIgCIiAIiyAgMLkGqXwHh2prHiOmhdIdy0d1v4naN+a+08GdisMfLJXuErhY+haSIwfvO1d5ZBAfLuCez+qxF4LG8kN+9M71R+H7Z8B8V6L4O4MpcOj5YW3eR9ZK7+I/3+y3o0WCsFNTMja1jGta1oAa1oAAA0AA0XegMALKIgCIiAIiIAiIgCIiAIiIDCrnaB/wBvqv8ALd8iiIDyE7ZcURAEREAREQBERAEREAXIboiA9U9j/wD2yDyPzKu4REBlERAEREAREQBERAf/2Q==&quot;&gt;" style="text;html=1;strokeColor=none;fillColor=none;align=center;verticalAlign=middle;whiteSpace=wrap;rounded=0;" vertex="1" parent="1">
          <mxGeometry x="713" y="370" width="260" height="225" as="geometry" />
        </mxCell>
        <mxCell id="BwzqPjI1iRtZFROYLctg-24" value="" style="edgeStyle=orthogonalEdgeStyle;shape=connector;curved=1;rounded=1;orthogonalLoop=1;jettySize=auto;html=1;labelBackgroundColor=default;strokeColor=default;strokeWidth=2;align=center;verticalAlign=middle;fontFamily=Helvetica;fontSize=11;fontColor=default;endArrow=classic;entryX=0;entryY=0.5;entryDx=0;entryDy=0;" edge="1" parent="1" source="BwzqPjI1iRtZFROYLctg-9" target="BwzqPjI1iRtZFROYLctg-5">
          <mxGeometry relative="1" as="geometry">
            <mxPoint x="595" y="482.5000000000002" as="targetPoint" />
          </mxGeometry>
        </mxCell>
        <mxCell id="BwzqPjI1iRtZFROYLctg-9" value="&lt;img alt=&quot;Customers, people, team, users, company, conference, social network icon -  Download on Iconfinder&quot; src=&quot;https://encrypted-tbn0.gstatic.com/images?q=tbn:ANd9GcRGDsADTncuaXXsqQx36K3ttSEWB9HbAMaOdQ&amp;amp;usqp=CAU&quot;&gt;" style="text;html=1;strokeColor=none;fillColor=none;align=center;verticalAlign=middle;whiteSpace=wrap;rounded=0;" vertex="1" parent="1">
          <mxGeometry x="165" y="370" width="260" height="225" as="geometry" />
        </mxCell>
        <mxCell id="BwzqPjI1iRtZFROYLctg-10" value="&lt;font style=&quot;font-size: 35px;&quot;&gt;&amp;nbsp;Initiates &lt;b&gt;Brahma Console v2&lt;/b&gt;&lt;/font&gt;" style="text;html=1;strokeColor=none;fillColor=none;align=center;verticalAlign=middle;whiteSpace=wrap;rounded=0;" vertex="1" parent="1">
          <mxGeometry x="10" y="560" width="570" height="70" as="geometry" />
        </mxCell>
        <mxCell id="BwzqPjI1iRtZFROYLctg-25" style="edgeStyle=orthogonalEdgeStyle;shape=connector;curved=1;rounded=1;orthogonalLoop=1;jettySize=auto;html=1;labelBackgroundColor=default;strokeColor=default;strokeWidth=2;align=center;verticalAlign=middle;fontFamily=Helvetica;fontSize=11;fontColor=default;endArrow=classic;" edge="1" parent="1" source="BwzqPjI1iRtZFROYLctg-13" target="BwzqPjI1iRtZFROYLctg-5">
          <mxGeometry relative="1" as="geometry" />
        </mxCell>
        <mxCell id="BwzqPjI1iRtZFROYLctg-13" value="&lt;font style=&quot;font-size: 35px;&quot;&gt;Configure &lt;b&gt;Console Account&lt;/b&gt;&lt;/font&gt;" style="text;html=1;strokeColor=none;fillColor=none;align=center;verticalAlign=middle;whiteSpace=wrap;rounded=0;" vertex="1" parent="1">
          <mxGeometry x="558" y="300" width="570" height="70" as="geometry" />
        </mxCell>
        <mxCell id="BwzqPjI1iRtZFROYLctg-19" value="&lt;img alt=&quot;Brahma í ½íµ¹ï¸ (@BrahmaFi) / X&quot; src=&quot;data:image/jpeg;base64,/9j/4AAQSkZJRgABAQAAAQABAAD/2wCEAAkGBxIREBAQDxASEBUVFg8PEBAPDxUQERESFRUWGBUVFhUYHSggGBolGxUVIjEhJS03Li4uFyEzODMtNygtLisBCgoKDg0OGhAQGi4lHSUtLTUuLS0tKy4tLS8tKy0tLSstLS0tNy0tLi01KystMSstLS0tLS0vLTctLSsyMCstLv/AABEIAKgBKwMBIgACEQEDEQH/xAAbAAEAAgMBAQAAAAAAAAAAAAAAAQIDBAYFB//EAEEQAAEEAQEDCgMFBgMJAAAAAAEAAgMRBCEFEjEGExQiMkFRYXGBYqGxI1KRweEHFUJy0fCCkqIWJCYzNENTo/H/xAAZAQEBAQEBAQAAAAAAAAAAAAAAAQIDBQT/xAAlEQEAAgIABQUAAwAAAAAAAAAAARECEgMxQVFhBBMhgfChweH/2gAMAwEAAhEDEQA/APhqIiAiIgIiICIiAiIgIiICIiAi29n4YlLhvhhAsW0m/wAOAW2eT0wI3g0Akiw4P4VwDSbu9PQ+C7Y+n4uUROMXE/vr7OsR3eSiz5kAjkcwOD901vAUCRx+axOZQB8b+RXLLGcZmJ6CqLe2VsfIynFuNBJOWi3CJhdujuJI4e61snHfG90cjHRvaS17HtLXNI4gg6gqJfRiRERRFlysZ8T3RysdG9ppzHgtc0+BB4LEgIiICIiAiIgIiICIiAiIgIiICIiAiIgIiICIiAiIgIiICIiD1OT0dzAkWAHb2hNW0tFAcTZGnkuwx8stY0OIOodYc2m0SC0d54Frt3gCVwEOQ5l7ji29DumrCox5BBBII4EGiF6PpvWxwMNIi75/5+/oyucZwv4nn/PLtz++vwvkwuY9zHCi0kEJJ2Wf4vqqzSl5LnEuJ4k8Sqk/ovPyq515Dr8KBuRs3Hx4srHxy2fIlzW5OQId8kMEMgB1ka1ocKbZBJ01XRxy4cs0JlysSfGljdHlZOS2JudNkEuhiO6bkgawCF1imhrSSXEm/liK7Oc8O+r6hs7aeHMyR5iwGOdPl8wwNxcaSDGuHcc0TMMTzZf1Zda3t06abETNntyWN53ZrsNzXNle1sTZpMp73Dea1xMkEbDThrubje+18nRNmfa8vpfLLPwZIMiWIQuMwjkip8DpzkSubLLI7dYZmEHnGlr3BtGgDovmiIpM23hhrFCIijYiIgIiICIiAiIgIiICIiAiIgIiICIiAiIgIiICIiAiIgIiICIiAiIgIiICIiAiIgIiICIiAiIgIiICIiAiIgIiICIiAiIgIiICIiAiIgL6Tyx/Z652a2DZOPYbh42XKznrO88uDnAyO7zWnBfNl942/tGEy7TLZ4zvbDijaRK3rPt9sGurvJB87i/ZzmNnwmTNidFkSc0JocmJ8dtBdIznAaD91rqHeRQtbPKH9mmS3aGVjYMXOsjDZYxz8bpOac8sbvUR1t4HQ0e9bHJ7NjZsOAPkY0t21BM5pcN4RiBlv3eO7odV1O0ndHyuU0vPwgZOIZsZ8WQx2+15c2gQe1odEHzyH9nuc6bIi3YWiAxtnyH5EbMZrnta5redJpzqcNBw71rS8ic9uYzA6OTNIN+MNc1zHx6/aNkB3dzQ63810WysU7R2HFgYb4+k4+VJkSY0krIXTxvbQlYXkBxbdHXQe19TgZ0MDcTZEuZCMkbO2rhOyRKHQw5GVLG+GF0o0G62NzdOFgDig5YcgHY+zNq5GUyOSSP93jDngyRLEHPyNydtsdul1FoIcNLC5kckcv8AeH7s5tvSbLeb5xu7Yj5zt3XZ1XbYWx5Nm7E2zFmTQtlkfsx7MRmTHLIGsyW3JTHEdYe9R69y6aHZX/EzNrnJxRiSfaQzHKjuUnFMe41l728DZNiqHG9EHynYHIjMzIufibHHEXc3HJkTsgbLJ9yPfI3j6aLNFybkjxdptyMJ/PY78OMyunDOjGR5FGL/ALoeKojQaFdDmbLdtbZuyW4D4S7Ejlx8rHknjhdC5zwefp5FscBZI+etb+XkxtxNuxHaAznB+xIxkPc0GUxynfEevXY26vy8EHNP/ZbtNpkaYY99gLuZ6REZpGgWXRs3rcPPy0Xn7G5DZuVAMmJkbY3EshdPPHCZ3iwWxB5G8bFeq70Z0f8Atpz3Os5vfP2vON5uuhbvbuvJeXtbDh2js/ZdZuNhHFjlx5Y8xzot5of/AM6HqnnbA1De/RBwnKDYM+DNzGUzm5N1km7vB1NcLF13+S8xfQf24kfvRtEuHRsSnEUSN3iR3FfPkBERAREQEREBERAREQEREEoiICIiAiIgIiICIiAilrbNBbIwz975IkzENVFtdD+L5J0P4vkrSbQ1UW10P4vknQ/i+SUbQ1UW10P4vknQ/i+SUbQ1UW10P4vknQ/i+SUbQ1UW10P4vknQ/i+SUbQ1V0+xuXGTjwsxzHjZUcZc+BmbjMyOYc42TGTq2zqvC6H8XyTofxfJKNoZNtbWmzJ5MnJkMkjyC5xAHAUAANAAABQWitrofxfJOh/F8ko2hqosk0Jbx9isajQiIgIiICIiAiIgIiICKUREIpRFQilEEIpRBCKURGbD7XsV0GwdhTZsjo8cN6rTJJJK8RxRMHFz3HgPn+BXgYfa9iu05F5s0AzZW4oy8bmhFnxmQR1C8mnA3vDg7gD38OI3i5cSZ6Nfa3JKeCA5LZcXLhDgx82DkDIZG48A/QEcR+I8V4C7noWLkYW0ZNkzZeKY4my5eHkOa+KWJu8RuvbZ061Wb8hdrb2jsqAco8fHbBEIXHG3oBE0RG4N51sqjZ1K1TlGfdxM+ypGY0OW7d5uZ8sUdOJfvR6O3hWg91or6VtXPbibLgLMbHlPTtpRx9IhE0UTedeSGxnq7xDQAe4A0vO29yfhnOHkRS4Wzek4rMmSKeUwQiTe3TzQo0Doa8vNKIz7uR2Ts2TKnix4QDJI7dYHGm8CSSe4AAk+ittnZcmJPJjTgB8ZaHbh3mneaHAtNCwQ4LtuQmwJGfvOeGWCV8UTsLFnZM3o7p5mgueyR1dhhH+YjVehtXko7Il2G7KLSXhuzs10UwkDjA1z4+u3+J7GuBPEaJXwTxIjKv3d8sRdfl7Zjndm4x2XDuNZk9H6DiBmTjOjd1ZJHg25grr3xtejtrKh2fmRbPZs7GyYmtxmzGTHEuXlula1znRy8Q4l1NA0BFDwEpdvD5+i7jLMWz8PGmhw4nyZM2fZ2jAJ348WPNzbYNx2jX12jxsHyr1J9jYzoMjLbjRR8/sl+aIAwFmPkAtBkhB7AN6Vwo+KUbvmaLuuSWzYZMPDfJDG9ztr42O5z42uc6ExAmMkjVhOu7wW9jPgycna2AcHDiiii2i+B8OOGTxyQP3Wv53jrqa4DQcNFaSc3A5ezpYmQySs3WzNMkDt5p5xgNE0CSNfGlqr6XtjaccsWwG5GJE6KVnOysxsY861jHi2RBuoYeLmjiAVr8o8aObFy5MaPZmTHGWSMkwWdDy8OPe152Ett7a0IJ01PoojPvH63zXMHV9wtFb+Z2fcLRXOX0YckIpRRtCKUREIpRFQilEEIpRBNIpREQilEEIpRBCKUQQimkQZsPtexXv7D21PhymXGfuEgse1zQ+ORh4te06EfNc2DWoWwMs+AWommMsbdZtLljkTQPx2xYuLHJXPNwsYQGau55skj0WzFy+y2uik3MR0sbWxtynYodkuY3g10l8PGgOK4rpZ8AnSz4BXZj2vDrcfllkNi5h8eLPFzk05hycYSsdJI8vJOoOhJqvE8V5m29sTZkvPTlpO62NjWNDI4429ljGjstFn8V4vSz4BOlnwCbEcOuj2ptrSuxI8I7nMskdkABtOdI4EW919ag6hpwpZNn7dnggfjQuDWOliyQd3rxzRlpa+N19U9UXobAXg9LPgE6WfAJsukutzuWWRKyZvN4sLp2lmTPj4winnae0177Oju+gLVsXlrkxti6mLLJC0RwZU+MJMqFgvdDZCe69LBXIdLPgE6WfAJsnteHTbP5UTxRvieyDLjdIZzHnQ9Ia2Z170jdQQ42b1rU6am8sfLHLGU7LLo3udH0Z0T4gccwf+HmxVMHhfvqb5TpZ8AnSz4BNj2/DrZOWeSWwsazGiZDPHmQxQY4ijZKwECgDq3Uk3qSeK0cTb08U+TkM3N/IbkMmtltqd29Jui9NeHgvA6WfAJ0s+ATY9vw6eDlXkshxoWmIdGdv403Mg5EWpJYJD/AboitRoVkzuVs8kU0TYcTHE/wD1D8XG5qScXdPdvHQnU1S5TpZ8AnSz4BNj2/DJmdn3C0VklkLuP4KizLrjFQhFKKKhFKIIRSiCEUoghFKIJpKVqSkFaSlakpBWkpWpKQVpKVqWQReOnl3oMVJSyOjI8x4hUpURShZGMJ4C/wC+9Zej/EL+X4pRbXpFdzCDRFKtIIpRSuAleH6qCtJSmleKIuNNBJ46d3mT3KjFSkBboxG/xOJPwdkfj2vksM+M5uvFv3m8PfwPqlJcMFJSmlICKpSmlalFKCKUUrUszYPvaeXE/oqNekpZpISNRqPEfn4LHSCtJSuG3wV+a89fkgw0lK7mEcVFKCtJStSUgrSUrUlIK0lK1JSC1JStSUqitJStSUgrSUrUlIEY6w9Qsw14/isQWRr/ABHuESUk6GvBUgiBJvuRzu4aD6+6vjjteg+qHRkcK0qh3AcP1VKWRpr+h4K9DjXlXd+KrLGG2KIsefAe/csE0YBoa8Dqthxv++Cw5A1HoElYYKUht6AWe4DUq4Hj+K9PmA2xH5g/fNfUeikQszTTZi98n+Vp19zwH1WwwE0xoodzW+P5n1VaXUcieTgzZHN6VHjvbRja+9+R3du1XCvG/IrUQ55ZVFyxM5CZ5EZ6JL9p2OqP9Qvqf4qXnbU2LkYkhZPG6J3g4aEeR4OHpovp5w8hhMe0RnzZA0w340m9HoNC13c6+Jd3LxeVnKfNjx3YO0caNz3NtksrAXhp03mlp3S74h72tzEOMcTKZfNZMdruFMP+g+3d7fgtSWItNOFeHgfQ963yrsYSNa3e/e7J/X0XOneMqeVSmls5ULWu6t0QCAe5a6jpDbEQb2dfE/xfp7KlLI/ifUqRrx/EKsMTfL5KJohRPAitBw41r4LKT4afU+6o8dV3t9QhDDDpfp+avpxr+ixNNcFk3xXDw79FGpVlOg9T+SxUsjjarSKrSUrUlIK0lK1JSCtJStSUgvSUrUlIK0lK1JSCtJStSUgrSUrUppBSllhrW9LVaUUgzuFJ3D1P0CxseRpxHgfy8Fl3m138T1f1VZpDRf8AfBY5qJ010AR7yfTwHBUpFiFV6Uvad6n6rRAv+q9GUdZ3qfqkM5DXA9sH+ZvaHqP4vr5rIY3MG+07zbHXbwB7g7vafX2ta6yQyuYd5hLTwsd48CO8eRVYez/tlnfZ/wC9TfZ6M+0Onr973tedl5U2VI58jnSvPWc5zroeJJ0aPkrM5p4c5zC0tAe5sRDWSdZrdLvmzbgdLFDQBYJ8guG6AGM4iNmjb8Terj5kkqsxERyhVzWN7xIfLsD83fT1WJ5J4pSmlGmrmjrN/lH5rBX/ANW1mN1H8o/Na5WXWOTO7WyNe/09QkfELA01qNFnjkF27TzHf7f0VSlApk0BB4mtPcHXwUOkrs6eff8AosVIRCtJSulKNKUlK9KKQVpKVqSkFaSlakpBWkpWpKQXpKRFUKSkRApKRECkpEQKU7qIgUopEQTSbvupRBC3pXDed6n6oisMZK7wVd8IiIyQydWXzYB/7Iz+Sxh6IgkPCnfCIgw5fEfyj81hAUoo3HJG7/fcopSiKilO6iIFKKREClNIiCKSkRApKRECkpEQf//Z&quot;&gt;" style="text;html=1;strokeColor=none;fillColor=none;align=center;verticalAlign=middle;whiteSpace=wrap;rounded=0;" vertex="1" parent="1">
          <mxGeometry x="1260" y="397.5" width="290" height="170" as="geometry" />
        </mxCell>
        <mxCell id="BwzqPjI1iRtZFROYLctg-31" value="" style="edgeStyle=orthogonalEdgeStyle;shape=connector;curved=1;rounded=1;orthogonalLoop=1;jettySize=auto;html=1;labelBackgroundColor=default;strokeColor=default;strokeWidth=2;align=center;verticalAlign=middle;fontFamily=Helvetica;fontSize=11;fontColor=default;endArrow=classic;" edge="1" parent="1" source="BwzqPjI1iRtZFROYLctg-20" target="BwzqPjI1iRtZFROYLctg-33">
          <mxGeometry relative="1" as="geometry">
            <mxPoint x="1405" y="705" as="targetPoint" />
          </mxGeometry>
        </mxCell>
        <mxCell id="BwzqPjI1iRtZFROYLctg-20" value="&lt;font style=&quot;font-size: 35px;&quot;&gt;&lt;b&gt;Create SubAccount&lt;/b&gt;&lt;/font&gt;" style="text;html=1;strokeColor=none;fillColor=none;align=center;verticalAlign=middle;whiteSpace=wrap;rounded=0;" vertex="1" parent="1">
          <mxGeometry x="1235" y="560" width="340" height="70" as="geometry" />
        </mxCell>
        <mxCell id="BwzqPjI1iRtZFROYLctg-28" style="edgeStyle=orthogonalEdgeStyle;shape=connector;curved=1;rounded=1;orthogonalLoop=1;jettySize=auto;html=1;exitX=1;exitY=0.5;exitDx=0;exitDy=0;labelBackgroundColor=default;strokeColor=default;strokeWidth=2;align=center;verticalAlign=middle;fontFamily=Helvetica;fontSize=11;fontColor=default;endArrow=classic;" edge="1" parent="1" source="BwzqPjI1iRtZFROYLctg-21">
          <mxGeometry relative="1" as="geometry">
            <mxPoint x="520" y="470.0000000000002" as="targetPoint" />
          </mxGeometry>
        </mxCell>
        <mxCell id="BwzqPjI1iRtZFROYLctg-21" value="&lt;span style=&quot;font-size: 35px;&quot;&gt;&lt;b&gt;USERS&lt;/b&gt;&lt;/span&gt;" style="text;html=1;strokeColor=none;fillColor=none;align=center;verticalAlign=middle;whiteSpace=wrap;rounded=0;" vertex="1" parent="1">
          <mxGeometry x="240" y="300" width="130" height="50" as="geometry" />
        </mxCell>
        <mxCell id="BwzqPjI1iRtZFROYLctg-33" value="&lt;img alt=&quot;Icono De ConfiguraciÃ³n 3d Imagen y FotografÃ­a Gratis 188922428.&quot; src=&quot;https://encrypted-tbn0.gstatic.com/images?q=tbn:ANd9GcRW4-HGGdKVMV50TkYCQwA8XNEMjCsmc3eZ2g&amp;amp;usqp=CAU&quot;&gt;" style="text;html=1;strokeColor=none;fillColor=none;align=center;verticalAlign=middle;whiteSpace=wrap;rounded=0;" vertex="1" parent="1">
          <mxGeometry x="1295" y="785" width="220" height="250" as="geometry" />
        </mxCell>
        <mxCell id="BwzqPjI1iRtZFROYLctg-40" style="edgeStyle=orthogonalEdgeStyle;shape=connector;curved=1;rounded=1;orthogonalLoop=1;jettySize=auto;html=1;exitX=0;exitY=0.5;exitDx=0;exitDy=0;entryX=1;entryY=0.5;entryDx=0;entryDy=0;labelBackgroundColor=default;strokeColor=default;strokeWidth=2;align=center;verticalAlign=middle;fontFamily=Helvetica;fontSize=11;fontColor=default;endArrow=classic;" edge="1" parent="1" source="BwzqPjI1iRtZFROYLctg-34" target="BwzqPjI1iRtZFROYLctg-39">
          <mxGeometry relative="1" as="geometry" />
        </mxCell>
        <mxCell id="BwzqPjI1iRtZFROYLctg-34" value="&lt;font style=&quot;font-size: 34px;&quot;&gt;Configure &lt;b&gt;Operator Rights&lt;/b&gt;&lt;/font&gt;" style="text;html=1;strokeColor=none;fillColor=none;align=center;verticalAlign=middle;whiteSpace=wrap;rounded=0;" vertex="1" parent="1">
          <mxGeometry x="1192.5" y="980" width="425" height="70" as="geometry" />
        </mxCell>
        <mxCell id="BwzqPjI1iRtZFROYLctg-38" value="&lt;img alt=&quot;7,907 3D Safe Illustrations - Free in PNG, BLEND, GLTF - IconScout&quot; src=&quot;data:image/jpeg;base64,/9j/4AAQSkZJRgABAQAAAQABAAD/2wCEAAoHCBARERIPERERERARERIREREREBISEBEPGRQaGRkUGBgeIC4lHB4rHxocJjomKy80NTY1GiU7QDs0Qi40NzQBDAwMEA8QHhISHz8nISs9NDExPzU/NDE1NDY2NDE/NDExND00NDQ0MT8xODU1Pz8xNDQ0NDQ0MTE0NjQ0NjQxP//AABEIAOEA4QMBIgACEQEDEQH/xAAcAAEAAQUBAQAAAAAAAAAAAAAAAQIEBQYHAwj/xABNEAACAQIBBQgJEgYCAwEAAAAAAQIDEQQFEiExQQYTUWFxgbHRBxUiNVJTYnSTFBYXMjNUVWRykZKhoqTBwtLjQnOys+HwNIIjQ2Ml/8QAGgEBAQEBAQEBAAAAAAAAAAAAAAEEAgMFBv/EACoRAQEAAgECBQMDBQAAAAAAAAABAhEDMVESEyEyQQRhgSJxkQUUobHw/9oADAMBAAIRAxEAPwDswAAAAAAAAAAAAAAAAAAAAAAAAAAAAAAAAAAAAAAAAAAAAAAAAAAAAAAAAAAAAAAAAAAAAAAAAAAAAAAAAAAAFvjMTCjTqVqklCnShKpOT1RhFNt/MgPLKGUKGGpyrV6kKVOOuc5JK71RXC3sS0s0jG9lTCRk40MPXrJapzcaMJcaTvNc8Uct3Ybq6+PxDqzvGMW1QpN3hQp7NGpza0ylt1akkYjDYLFV+6ipyj4TkoQ+tpHtjw2+q+k6uveyx8Q+9ftj2WPiH3r9s5T2gxfk+mh1k9oMV5PpodZ15M7m8XVfZY+Ifev2x7LHxD71+2cq7QYryfTQ6x2gxXk+mh1l8mdzeLqvssfEPvX7ZHss/EPvX7ZyvtBivJ9NDrHaDFeT6aHWPJnc3i6p7LPxD71+2PZZ+Ifev2zlfaDFeT6aHWO0GK8n00OseTO5vF1T2WfiH3r9seyz8Q+9ftnK+0GK8n00OsntBiuCPpodY8mdzeLqfss/EPvX7Y9ln4h96/bOWdoMV5PpodY7QYrgj6aHWPJnc3i6n7LPxD71+2TDstQT7vAzUeGGIjOXzOEV9ZyvtBiuCPpodYW57F7FFvgVaF+keTO5vF3zc9u2wGPap0qjp13qoV0qdWW15ulqehN9y3bbY2Y+VMRgsTh2pTp1KdmnGelWkndOM1tT2pncexlutlj6EqFeWdisOo3novWovRGp8pPRLmf8VlxycNxm50RvYAPEAAAAAAAAAABBpPZbxcqeSqii2t9qUoNp2eapZ7XOoW5zdjn/AGZl/wDnU1w42gnyWmXGbyg4phsH3SnU0r2zjwt6ov8A3YZSWJk9GxaEtSS4Eth41ta5zwrOTSjBpSk7JvZws2W7Vd78yd+ZbUMmxcU516qk9ajG8U+BNzV/mK+1dPx9b6C/WNTum3tvrJ3xnh2sp+Pr/QX6x2sp+Pr/AEF+sance++Mb4eHa2n4+v8AQX6yO1tP3xX+gv1jwzui5zxnFt2vp++K/wBBfrHa+n74r/QX6x4Z3F1nE5xadr6fvjEejX6yPUFP3xiPoL9Y8M7i8zhnFn6hpe+MR9BfrHqGl74xH0F+seGdxe5wTLL1FS98Yj0a/WXUcNCFOM4Vak86bg41IJZrzbpp5z49HIPD9xksl5WnTmqc7TpT7lwms6DvsaetMyW5OmsJl7Dxo3jQxKqxUL3zYypyk6d9qU4wfIkarUem/A0bXkJ3yvk1/wD1qLm3iRL0v7U07kADGoAAAAAAAAAAINA7Mve6l57Q6JnQDn/Zl73UvPsP0TOsPdByCvrXIzxXt4fK/Kz2xGzkZ4Rfdw+V+Vmqqvqb0c76WTcog9HO+km4SqrkXKbi4FVyLlNxcolshspuRcCpspuRci4E3FyLi5QuXX/oj/P/ACMtLnQdwe5fDY3COpiM+VsROMYwm4JZsIaXbS/bP5jnLKYzdGgVTbMg99sm/wA6r/ZkWu77ItHA4uNKhn73OjCpmzlnOMnOcWk9du5T08LLrIHffJn82r/ZkN7m/tUdzABjUAAAAAAAAAAA5/2Ze91Lz7D9EzoBoHZl73UvPsP0TOsPdBx7EbORnhD28PlflZ74rZyMt4e3h8r8rNXwtXafS+km5RfXyvpFyiu5Fym5FwKrkXIuXGEwVWr7SPc7Zt2gufbzFxxuV1JtFvcXMssieFXpp8CTdvrR51si1YrOg4VF5ErS+Z9Z736blk3Ym2NuRciSabTTTTs01Zp8DRFzx0qbi5TcXCpudf7FP/Al53U/opnHrnXexRUj6hnHOWdHFVG1dXScKdnY8ub2jXey3/zqfmsP7tQtcgd98mfzav8AZZ79lipGWOgoyTccLTUrO+a98qOz47NPnR4ZA775M/m1f7LLj7fxXLugAMigAAAAAAAAAAGgdmXvdS8+w/RM340Hsyd7qXn2H6JnWHug49itnOW1P3SHyvysuMVs5/wLal7eHK+hmr4WrmWt8r6RciT0vlfSRcoquRcpuQ2Bf5Owqm3OfucPbcM5eCv96TIVcROfcRWbG1oQjqstmgppwzKNOC2xUpX8Jq/4/UXeAwqfdSWhW7l2azuqzPv/AEvFjxccyvWuL6vCnQnJNxi3nQjayb031aEXMFKMm1r0QgtV3tduDlMmpkxmr6dWq+1LiPW8tvwaY3KeTo1oZysqsUkpatPgy4n9V1w2NTd1oaaa0NPQ0+Bm8ylaVtmp8GbtWn/eU1PLdPMry8tKfPpT+dxb5z5v1nFJJnCLG4uUtkXPnbdKrl2/+PH+e/6GWLkJY5KG9vZUU1bS33LTXQTqPWdktBuO5/vvkv8AmVf7LNHeKg7KKm3ZuWiKafEk3dfMbbuRx1OtlbJrhe8alRSi1aUXvMuoZY2T8VHfwAYlAAAAAAAAAABBoPZk73UvPsP0TN+NB7Mne6l59h+iZ1j1g47i9S5/wLaj7pDlf9LLrGao8/4FrR90hyv+lmr4Wvab0vlfSU3JqPunyvpKLlFVymTIuANjTzqdOWjTCOvZ3KL/AAclmWVtD2ajBZJxKcd5lrV3Djjra5tPM+IyVObg+LbycB+h4M5y8U1/1csopE3LOOKjxrVwbSiritFlo0tN6Lp9FjvwVVeJq3k3ZSXy78erZyGAy/VvV+TCKfLdy/FGTlNRTqzslHTdaM57EkaziKspylOWuTbfV+Bh/qHJjjhMJ1SPCWIadnH6/wDBDxPEzJ5IinKjdR0zcXnRUlZ3urPmMvUrYWM5wlhlGUJyi5RhRelNq9s1cBg8GN3Z6TevU9WqQdSbzYRcnwRTkzIYHIk5ytO99bhFpz/7S1QX18Rmp42jayVaS8G9OnDkeZpLPEY2Uo5kVGnDwIbflPXIeHHHrf4GUwFSnTe9Qq0ovVmODdGT8Fz2vjKMbkyEpqdBzwmMg8+EVUcFJ+FTmn9afOYRl5hsozjHe5xjWpp3UJ3vF+TLXEkyxy6zX+Z+Tws9hOyVlfBtU8VCGIS21oOnVa4pRsnyuLMr7NE7d7o34fVjtfk3r8TWoZSpWzb4iMfAbp1Ic2dpFKthalSEFhlJykldwox59EWT+3wyvx/J6tz3P9k6vXrU1XwKp4WtWhQVenOUlCpN2je6tJXsna1uO1jqRwajTlUxmT8NnZ0fVtJ2SUU6cJqUrJaF3KO8mLmxmNmppUgA8gAAAAAQaD2ZO91Lz7D9EzfjQezJ3upefYfomdYe6DjuM1R5y1oe6Q5X0MusbqjzlrQ90hyvoZr+Fr0qPupcr6Si5VV9tLlZSUSQATQJtNNNpp3TWhp8JlMNlVWUaqd/DitD5Y7Ob5jFg9uLmz4rvGjPrFUXp3yC5bp/M7FFTKFCGpucuCKaXO3o6TCEM05fX8tmpJEe+Nxk6rvKyivawXtY9b4y0kVsokYOTLLO3LK7qrnJs7JPxdaEubPTf1XMjldZuIqcclP6UVL8TEYTSqsOGN1y2MxluV5057KlCnPpj0JHph+rjv2sRZXKWxCMpSjCMXKcmoxjFOUpSbsopLW2y7yzknE4OpGliabpzlFTjpUoyjtzZLQ2noa2PlV/NVncvsjZLr4ytHD0IZ05aW27RhDbOctkf9V2U5GyVXxlaOHoRzpy0yk9EIQ2zm9iX+EdtyFkbC5Lw0oxlFJR3zEYidoubitMpP8AhitNls5bt85569J1HEspYGrhas8PXg4VKb0p6VKL1Si/4ovY/wDJ65EV8TTeyGdN8iX+TJ7t900coV4uEFGhRU4UpSjarUUms6ctsYuytHZpb0uyx2QF3dWfg0nHnm7LoPbh90t/dGx7jaO+ZZwi8RTrVpc8JU19pxO2HI+xdRz8p4qt4nDRpc85xl+R/OdcMfPd5CQAeQAAAAAINB7Mne6l59h+iZvxoPZk73UvPsP0TOsfdBx3G6o85aYf3SHK+hl1jtUectMP7pDlfQzX8LXpV9tLlfSUFVb20uVlB1CpBACJKikAVEMgEBlLKilnOQrwTtUt4UWvxMpj9OHwk/BjUpN8cHFJf1GDm2mpLXF3Rn8HbEYepRjpmmsRSW1yStOC47OXPJHrwesuPef6HtuSy3DA4uGJqUlUhmyhJ2vOmpWvUh5SWjjTa2nZspYDCZVwqjNqpSmlUo1qbWfCVrKcHsexp8aaPnyMrmzbjN1lTJ1TMlnVMJOV6lNaZU5P/wBkOPhWp8tmZ+TC73Oo6zkTI+FyXh5RhJRjFOpXxFRxjKeatMpvUopalqXOzl+7XdfPHz3mlnQwcJXjF3jKvNPRUmti2xjs1vTZRp3a7r54+e80s6GDhK8YvROvNPROa2Jfwx2a3ptm6pcuGGv1ZdRVczOQ1alVl4dSnTXKu76zCNmXxNTeKcKX8UISqVLaf/NUTUVyqLk/omrjnpcvtr8ldG7DdC8MfifGYiFJPipxcl9VRHTDXtw+R3gsn0KElapmupVW1VZvOlF8l1H/AKmwHzuS7ytEgA4AAAAABBoPZk73UvPcP0TN+NV7JGS5YrJeJhTTdSmo16aSu3KnJTaS2txUkuNlxusoOEY7VHnLKlNRnGT0JPS+DQXlaaqU41I6UtE1tjfhLFo2SbirirTlnNpXTd000009TTKcyXgst96jwDeo8BfUXGZLwWMyXgst95jwE7zHgG6PfMl4LGZLwWeO8x4BvEOAbo997l4LG9y8FnhvMOAbzDgJuno9syXgshwl4LPLeYcA3mHASnoqlTl4LK8BiZ4epGemKzr8j4TwdKHAQ6cdiOZl4buDP5YwKkni6KvTl3VWEdO9TeuS8h677G7arGJTPTJWV54aSV24fPZPWrbVxGWxWTadeO/4RK7V50I7eGVP9HzcBpmuT1nXsjC3JuUJ7NN72tbTfgtwmWoYSFBKpXSlO14Ub6I8Ep9X+pjhb9pOtEYHD72liakdC9xpvQ5z8Liitd/8X2nscbnpY7Feq6qzsPhqmfKTXc1sWrSjFeTHRJ8kFtZYbmdzOLyxU3xuVLBxlm1MQ1ZzSemnRjqb2X1Lbd6H3DJeT6WFoww1CCp0qUc2EV87be1tttt6W22eXPzyY+DHoL4AGEAAAAAAAAAABxjdxuAr4arPHZOpupQm3Krhacbypt6ZZkP4oPwVpjsVtXO6lShJtrPpSTtKDWdGMtqT1rkZ9VGMyhkDA4l52IwmGrS1Z1SjTnK3BnNXPXHls6rt8y/+Pxn2WTen4z7DPoz1lZJ+D8L6GHUPWVkn4PwvoYdR354+c70/GfYYvT8Z9hn0Z6ysk/B+E9DDqHrKyT8H4T0MOoefDb5zvT8Z9hi9Pxn2GfRnrKyT8H4T0MOoesrJPwfhPQw6iedDb5zvDxn2JC9Pxn2JdR9GesrJPwfhPQw6h6ysk/B+E9DDqHnQ2+cu48Z9iXUO48Z9iR9G+srJPwfhPQw6h6ysk/B+E9DDqHnQ2+ce48Z9iXUQ1Dxn2JdR9H+srJPwfhPQw6h6ysk/B+E9DDqJeSG3zc4U/GfYl1HphMbLDzUqc8+L9tHSv9fGfRvrKyT8H4T0MOoqhuNyTF3WT8Hfjw9OS+ZoTlku4bcIrZeoOW/KFNVnHTUcXn521tWzXLytv1G27jdwFXGtYvHqVPDN59Og3KNXEeVPbGD+k+JWv1OnudyfCoq0MFhI1U85VI4akpqXhKSjdPjMqd5/U5ZTSPHD0IU4Rp04xhCEVGEIxUYRilZJJaEj3AMwAAAAAAAAAAAAAAAAAAAAAAAAAAAAAAAAAAAAAAAAAAAAAAAAAAAAAAAAAAAAAAAAAAAAAAAAAAAAAAAAAAAAAAAAAAAAAAAAAAAAAAAAAAAAAAAAAAAAAAAAAAAAAAAA/9k=&quot;&gt;" style="text;html=1;strokeColor=none;fillColor=none;align=center;verticalAlign=middle;whiteSpace=wrap;rounded=0;" vertex="1" parent="1">
          <mxGeometry x="718" y="680" width="250" height="215" as="geometry" />
        </mxCell>
        <mxCell id="BwzqPjI1iRtZFROYLctg-44" style="edgeStyle=orthogonalEdgeStyle;shape=connector;curved=1;rounded=1;orthogonalLoop=1;jettySize=auto;html=1;exitX=0;exitY=0.5;exitDx=0;exitDy=0;entryX=1;entryY=0.5;entryDx=0;entryDy=0;labelBackgroundColor=default;strokeColor=default;strokeWidth=2;align=center;verticalAlign=middle;fontFamily=Helvetica;fontSize=11;fontColor=default;endArrow=classic;" edge="1" parent="1" source="BwzqPjI1iRtZFROYLctg-39" target="BwzqPjI1iRtZFROYLctg-43">
          <mxGeometry relative="1" as="geometry" />
        </mxCell>
        <mxCell id="BwzqPjI1iRtZFROYLctg-39" value="&lt;font style=&quot;font-size: 35px;&quot;&gt;Enable &lt;b&gt;SafeModerator&lt;/b&gt;&lt;/font&gt;" style="text;html=1;strokeColor=none;fillColor=none;align=center;verticalAlign=middle;whiteSpace=wrap;rounded=0;" vertex="1" parent="1">
          <mxGeometry x="649.5" y="650" width="387" height="70" as="geometry" />
        </mxCell>
        <mxCell id="BwzqPjI1iRtZFROYLctg-42" value="&lt;img alt=&quot;Plugin - Free interface icons&quot; src=&quot;data:image/png;base64,iVBORw0KGgoAAAANSUhEUgAAAOEAAADhCAMAAAAJbSJIAAAA5FBMVEX/////qDTQdADxhwDwhQD/qjbPcQDPcADwgQDefAD/pzLRdQD4yqjZeQD/qzbObAD/pSjxhAD/oyD9oy3rxaj3lRv6nSb4lx70jxHifgD+9u3+8OD/ohr++fPwfQDOaQD+rUX+vXLgnlvhhxj+69f+0J/+tFj+27T+1qz+uGT+sVD+5sz+3br+yIzukyHbiy3dkTrelkb3v4/gn13WfhPmixjw0LH+vG7948T+yZH+wn3+06Xtmy/djCnckDj4xp7zmDj2uYH2qV70oE/2sHXns4L0o1DdmFXjp23VfyPy1LjqvJMgEiCnAAAMFklEQVR4nO2dbX+aPhfHVQh0cQrCRKdY29XezZa1683a7tpt/13v3v/7uQKKIiSEEBK0H37bgz5pmq85h3OSc4i1WqVKlSpVqlSpUiUWTSdlz0CsBt9c925Q9izEabRvmfW6ae6XPRFROtmx6r6gtXNT9lxEaHhgwfpc0Doe8o02Gk5vDg+Pjg5PbibrYfWDU3fBFzC6p6OcI032bw9c17VCoZ/h3e3hIOd4BekImvWYzPp39nEm+8eua5owNhY0TcsFuzelreb0sxWf08wdp2zDnO5YCbgopgUPjspYycGxS5gWdBnc8WjHTcFbfGruneyAO7q1EgYaMVX3NtuHfghwZoAf8hvnU4xNJ8CiTAgc0UeZYM2cOKR1J81WJwf0mSF3pNnVPgtfwAjZPDyvRnckB4wxurtpD8HBAcUMsEPeSgD8bqY4YOwzN/eJdjUAmYeJytoVzXezw2Ra1s4JfpwRYLTQxYjfhPINiRGCJGh9xj0CcwMixDtxfKNTN4dlQdy+ajeXic7kEsyCX4f5PMd/BMYTuRM3P2AdAjFBgy12xeYU31ft5B7KlyViIzrYZXXAGKN7EHHHKc8S+plq8YAMEYLMuNxXnXKO5ha+0+Zym4VMELpjncse0Eg5Nmjpem+BIhDDfdWU1yDMwmPi+07XcWwIYZ2TFLo7+2izywlYh58LJ9xSFVVVFaXfdWw+SpjcyecYZKd4QmWmGaYDCzHatSQMMRFkqYj/E0sYQCq9EhcS/hBOGKg8Ru+LHELEWBJhSxqhqtgl8AFPl0aI/NGRT2g3NHmEiLEn2xlhUy6hdETYakgmVFRHIiKwmw1E+FMqoSLxcQO8RqMEQrUvia8N97RSCBVVyiICeKXNAEsg7Ergs68aC2lnkgkVRTQe9PaajTIJRZopAHUH4WmNcgkFZDYAqQ5tb6+lrdAxE06+n9ALj1QrLZoQ2J53tbfXaibpGAmnB65ludQDVulr6DUQGhZuRniekS885nXXjbDdIsKxEM56tXxZtGItlbBYQLR9uCQvYGbCsFcLyaQVVmnxsF98Zuo1OQmHx5E6CwSchCIepWGGlo8wXom3KKfkpeSlbbKpUgkTvVoQpkeMX+mEouJ922viGSmEU0wlnnJMnkoocAsM6h6WUE8jHHzDFjrNg7yEalfkBhjvjmmEt6RKvHmcUjpOIRQLWMe7o/5ImulJSiXePCC395AJVRlHpgl3JBFSerVM85CVUC08IcUK7X1XUzg8Ib1XC7rfCJb6FUuoKn1Z9ZmYO+qfMJPMVIkndWnhCFW1b0s8ZGs7EXfEEN58ztglZ4F9jDtiCNW+9NPuZSKXIBwcZ2+Fgaa5m+h0WCVU0b9eCQULUL/SsIQjYoQgyLTc46MBlnBWA+7JNM+oUOSYEV5EZ5erVwta7sHd7XQ4WBKqPl2/27PLwgvU9nx3jBJODvL2MvlvAljg+Pj4293tcb/Xcxzb5u7FKEJelHC0m78XLRBEMovonihQKHIYC0KHvc94E9R2Fk8aT0pSVYLM3WFIqCgya1/yZJqnC0KUepQ9HSGapdE+IXrMd8vuYRIi6H6e1LrqPFK/SXcE9scl4Zq4o1+KqEPbnoVWwDclgPLUKKHcnQBGEDq9bl9RO2ooP0Ny7JyxFjgtlNxECVG2XKI72k7f74VTI/MJnhD+/36Ohk5gz/aLK4SluSOwe/04W4xT6TIZGNpkzLdRCUK1BHe0+/7fpYphuwmWG8UEoXx3dPopq7e6khkZQfTsDUPob16l5dHAzso3nxr900dpd+S8plnr48eXZKqgy8IXINKaOsDqGTiRUE4iBwl/PV1pMwPxg1MioZRzMjvL8wUzMyJiGCEyEQbuuI6ACrERMHEqTCP0JfI4EOYFJBTr2tiaMI1QpDvm8sFQiYc9IBRLESHl0xKWyPV4AJVYTXk1QjAR+hLijpCHL2anyxQtJ6GQ8pHDtYQrvR0grSkjE6EQd+TyQiXSn0NyQDZCpVP4S0ycgKGZkh2QiVBVO0WvIeQmDErnqQaahXA+jX63cEe0eQmR5/Sc3rvUzi8Kof+CXb9XxGmJGMJgX/yRBkgkRL/M/Spoujr8hEi5CcVXb0EhgDkJ/fAnfnfYK41Q+I5iriIcMQ+hqkp767NbDmFf3nkpZ2Kaj1DGiy1LcWameQgl10oB3/4pM2EUUPZRMD8iE6HwHsmkgMN4lshFKO0NwRVEmw+QjbCcQjdkPRLOTSjifYhMYjzW5yAs4aX5CGNewncMVloaYMDYTaseFrKGpRlpyFi3e0pHZcZkIJQfKpKU0PGL+Mr8rqJMolvpZWilBaQz0LZ5s1oA/C6MXrffz3jin90PC8hIvaamNYs5IAfIaItawwL9MDj0Kmx3mTFpZbDSj7yEUJsRFnNADuyPBa3hgvAdZ0ozry0HTXLcpVW/EPiucMK9Ntek5q/lBqbF2wcYHPMWT9jgWkTgaUtCvnuFgO33ajUFEO7xfOxwfri+eDzkPY8MK/EiCDUvv52CsDwSaQPM446+A84kgrCh5e6haYcvqjSij3h660tinGWdJSMhPWuLEuZGBAvARjyIsZjqzAGFEuY11CVgghC5Y8ZPLVYIFETY0PaY8cD8PSM8oe+O2SJHrBAoihCNzGipYZggEQbH6NRR2k7inXNhhGgZGR6BwInV0LHJJC2Rw/RqCVxDhJiV0b/YJz4zUpNcSuRYRghZhD7kpQfb6ZSgbeNK6KQNATmRw/dqibTSOaPW8uw6obrtb9+uWtgKelqrNs4dVyKEVMKAsrXnORACENbxg5+g7Xh7hLso0ghx7ohzwFDZdk98hIgR/Wte7l1deTNdXe1dNhtpdxelb1vj7pjWKiKHMOT0rVYLLpyiNXdQNuZq5LQEEyGikmGleZTh6MGhGmggmWtYMKGfyPn3G1JG2mBC/yYJaq/WZhMiUW4i81X8SVQBeA35hNUaVoTsWkcr3VI3mTDLGk5/b6tvm7BWO+qgdXyzhLMvgfjT6bxxwtrwb4a/mUXrR/gcXgDySS+Ar9FcO0L9MiS8WDvCTid4LZ+LUDMuRutKqD3e/f13f3+vbG1tdcijphJq47PIzbnrRmh8mN9BNnz585+3vUVo7U8jNC6vo5dhrSvhnPPXv+1tHCSZUB8/rN6ct25PmlVCXzf/OluJ4UmEmvEYv1B2/QlrtckfJc5IIDS+vCR+exMIa7XRV3XVVrGEuv6K+d2CCLMB5iZEjH+3o58i7ph3/IS9uvJxQwhRGh1dxgShZpwT7lbfHMLa4H55CWWcMBYhNpSwNloirhKiCEH+rfMNIqzVFohRQs34lPYt5ptFWPvdSRAaz+lfG39Ofd10rQiHSuzwRW+m/8LGEYZXT88JdUKE2GTC+X0ewUCYFO0tEM5u9fUHMp6TKdpbIBxuzwbSjddsX6O+cYSzg97W+CItQmw24fet7a2ts/QIEdXZxhHWhi9HtK/32XBCRlWEFeH6E/6sCCvCirB0wi8VYUVYEVaEFSG3fqwZob6uhIJrT2tA+LatVNP1dV5D/ifN+PH19cd2NsQyCLkrpHpwJjT1krX2NSF8NfgAtbD36JdC+wryTITjTKe8LHoZ8xHqi8rd6A+2L4SJEF+J5xT9/YBUjSMHl8N7mjumE2rjp6zHvCziM1PteWWwE4o7phFqxhnLMWh2jdK/qpyihNuku2MKYUolnlfXHIu4+nWKgQb/pZgqkVA3HrLVWXLpKTeifomb1uQ30VQJhNo4SyGQQxc5EfGAtRR3xBNmLATyKN8q6pfEJ9/oawcbOXCEekNAhEjoYcz+uBmfpT3aB39x7pgkJPVqFa5pkzF70wzaJz/BmGqckNyrVbxGTwYDo2b8zDCz9/145IgRCowQOA0/jTMyauOMM0skciuEmSvxxWnyNDao/qjp4+fs+f/w34o7RghRhBCRotE0+nDeTLNWzTCeH7KX0H2t7KuWhMZPtmEK1ODl4nJs6Hp8MTXdGBuPrzkicySRCwkNaq+WWI0G169PrfF4bMyFftTPH14nOc1qsHDH1txAH8ow0KQGk5fr6w8fPly/THlzquH91qJZC0UIsSlaSZolci0/RZMaIWTKb7dvlhAhJArtq7L3am2oJqVFiEqVKlWqVKlSpQ3V/wGnXMR3w4/5gQAAAABJRU5ErkJggg==&quot;&gt;" style="text;html=1;strokeColor=none;fillColor=none;align=center;verticalAlign=middle;whiteSpace=wrap;rounded=0;" vertex="1" parent="1">
          <mxGeometry x="170" y="660" width="250" height="215" as="geometry" />
        </mxCell>
        <mxCell id="BwzqPjI1iRtZFROYLctg-46" value="" style="edgeStyle=orthogonalEdgeStyle;shape=connector;curved=1;rounded=1;orthogonalLoop=1;jettySize=auto;html=1;labelBackgroundColor=default;strokeColor=default;strokeWidth=2;align=center;verticalAlign=middle;fontFamily=Helvetica;fontSize=11;fontColor=default;endArrow=classic;" edge="1" parent="1" source="BwzqPjI1iRtZFROYLctg-43">
          <mxGeometry relative="1" as="geometry">
            <mxPoint x="295" y="1030" as="targetPoint" />
          </mxGeometry>
        </mxCell>
        <mxCell id="BwzqPjI1iRtZFROYLctg-43" value="&lt;font style=&quot;font-size: 35px;&quot;&gt;Enable &lt;b&gt;ExecutorPlugin&lt;/b&gt;&lt;/font&gt;" style="text;html=1;strokeColor=none;fillColor=none;align=center;verticalAlign=middle;whiteSpace=wrap;rounded=0;" vertex="1" parent="1">
          <mxGeometry x="101.5" y="850" width="387" height="70" as="geometry" />
        </mxCell>
        <mxCell id="BwzqPjI1iRtZFROYLctg-53" style="edgeStyle=orthogonalEdgeStyle;shape=connector;curved=1;rounded=1;orthogonalLoop=1;jettySize=auto;html=1;exitX=1;exitY=0.75;exitDx=0;exitDy=0;entryX=0;entryY=0.5;entryDx=0;entryDy=0;labelBackgroundColor=default;strokeColor=default;strokeWidth=2;align=center;verticalAlign=middle;fontFamily=Helvetica;fontSize=11;fontColor=default;endArrow=classic;" edge="1" parent="1" source="BwzqPjI1iRtZFROYLctg-48" target="BwzqPjI1iRtZFROYLctg-52">
          <mxGeometry relative="1" as="geometry" />
        </mxCell>
        <mxCell id="BwzqPjI1iRtZFROYLctg-48" value="&lt;img alt=&quot;Cryptocurrency Transaction 3D Illustration Download In PNG,, 59% OFF&quot; src=&quot;data:image/jpeg;base64,/9j/4AAQSkZJRgABAQAAAQABAAD/2wCEAAkGBxMTEhUSExMVFRIWFxcYGBgWFRUVHRcWFxYXFxgVGRcYHSggGBolHRcVITEhJSktLi8uFyEzODMtNygtLisBCgoKDg0OGhAQGislHyYrLy0tLSstLi0tKystLS0tLS0tLS0tLS0tLS0tKy0tLS0tLS0tLS0tLS0tLS0tLS0tLf/AABEIAOEA4QMBIgACEQEDEQH/xAAcAAEAAgMBAQEAAAAAAAAAAAAABQYCAwQHAQj/xABEEAABAwEEBAoGBwcFAQAAAAABAAIDEQQSITEFBkFRE1JTYXGBkZKh0RUWIjKisQcjQmKCweJUY3KTwuHwFBcz0vFD/8QAGwEBAAIDAQEAAAAAAAAAAAAAAAIEAQMFBgf/xAA1EQACAQICBgkDBAIDAAAAAAAAAQIDEQQhBRIUMVGhEyJBYYGRsdHwBlJxMsHh8SOyFSRC/9oADAMBAAIRAxEAPwD3FERAEREAREQBERAEREAREQBERAEREAREQBERAEWF8Vos0AREQBERAEREAREQBERAEREAREQBERAEREAREQBERAEREAREQBEXPapro5ygOcS1JPPh0Bd4KjG4ALus7sKIDciIgCIiAIiIAiIgCIiAItFotLI2lz3BrRtP+YlV+fXGMGjGOdzkhvmtlOjUqfpVyEpxjvZZ0VQdrmdkQ739lj65nkh3it2xVuBHp4cS4oqb65u5Id4p65u5Id4psVbhzHTw4lyRU71zdyQ7xT1zdyQ7xTYq3DmY6eHEuKKneubuSHeKeubuSHeKbFW4czPTw4lxRU/1ydyQ7xT1ydyQ7xTY63DmOnhxLgiqLdc98XY7+y7bDrTE80cCwnnqoywtWObXoFWg+0sK47XpBkeDjQnLPHoO1dLHAioNQj2AihAI3EVVc2kY7S7Tl4LmfbeZdlo0JE7IFh3tNPDJQ1usckOZvMP2t3SNikrGMztNqrgtsVsIwzCiInrKFskz7keAHvOOQ8zzKLdiViebpJozNOlbYdIxuddDgXbhj/4uOz6vxDF9ZD944d0Ydqk4YWtFGtDRuAA+SwrmDaiIsgIiIAiIgC0Wq0NjY57jRrRUreqpr3a6MjiH2iXHobl4nwW2jT6SookZy1Ytlb0tpR9ofedg0e63Y0efOuBR+ldJiENq0uLq0ANMBSpr1hR/rMOS+P8ASu061Gl1L2t3P2KCpzl1iwIq96zfuvj/AEp6z/uvj/SsbXR+7k/Yz0M+BYUVf9Zf3Xx/pXz1nHJfH+lNro/dyfsOhnwLCi49HaSZMDdwc2l4bqiox2rtY2poMyt3SR1de+Vr37LEGmnbtC+gLMbmNvuGZJowdf2upfQ9xdd4e67H2WNa3EZ+8DuO1eZxX1TQptqjBzt27l4ZN+Nku861HQ9WavN6vdvfiluPlF8os4pnE0bKJN4e0ZdLQPzXRDEJMGi68ZtJz6D/AJ1ZKWC+pKFafR1o6je7O687JrxVu8jiNFVaSvF63hZnEvocs3soclqK9Ijl2LPoXSzmNBrUVoQfmrfZLS2Roc3I+B3LzIS3Y/xfkrLqTbi5z4/uh3YQD8wudisOtVzXYWKVWzUWW9abRCHtLTkRRbkXMLZSmgtqDmMD0jBWjRdm4ONraYnF38Rz8upRVrslbWG/ZfR3UPe+XirEl7gIiIAiIgCIiAIiIAvPddZr1pI4jGjrNXfmF6EvK9MzX55Xb3up0A0HgAr+j43qN8F6lfEvq2K5rBo/h20BLXD3XDMeYVXOrVo5d3YFe3BYloXUlRpzd5RTK0asoqyZRfVq0cu7sCDVq0cu7sCvV0JdChs1H7V88SXTy4lF9WrRy7uxZDVq0cu7sV4uhfWtWdlo/ah08uJF6uaH/wBOwi8XPcauJzO4eKsjYvs7PtEbfujmWmxtxru+exdrG0XjfqnSDUlg6bskry7+C8s3xuuB2dFYe6deW/s9/YjLRpG48xtuYUw25bgVwG0XXXiQHGuZ31BPzUjpcAAYCpPyC57E2Oji+7UmmOdAB+ZK8/TcI0tZR35fk9LBxVPWt/JloqYNeQftUAO4qWkFKOGY/wAoq+KF4a0UqcBzbT0AKwvOC0YxJTT4rM1YmOalxR0aQYHNbIMznzneolwUpf8AqqZez8sVGuX0H6fxMq2EWtvjkeT0jRUKl12ny1GjWjpP+dqsX0fR1klduY0d41/pVat7vaA3BXL6PoaQyP4z6dTWj83FdTFy1cO+/wByjSV6qLYiIuEdAxpt2rJEQBERAEREAREQBERAaLZLcje/itc7sBK8lLl6RrZLdssm91G95wB8KrzZy62jo2jKXf6f2U8S80jzzSlt4ORzZGyF1a1AvA84IOS5PS7OLJ3SvQpbG12YWr0dHxQpPR8G73ZlYnLcUL0vHxX91fPS0fFf3FfvR0fFHYno6PijsT/jofczO09xQfS0fFf3FnHpZxIELZOEOANKUV79Gs4oWcdjY3ENFVmOj4Jp3Y2m/YSuiqllTnhXsXZeXHoqT3m7c/8AOxZWq0XRWlV8907CUtJVV2tr/VW5HpNHRvhoJfHc5NLPq4DcPn/4uSOxyEB1WXTjSjq02Y1z6ktEt81yW2S30bSgaAKVJ2ZLXq1IwjGHidlRlGKUTPRbmtf7oq7btwqaV3cyl3FQ2i2Fzr9PZGVftE7RzU7aqSmloK4V2V3qpiUpVbR+M0V11jbNNRhAIIyI3FaIsSFxcNeOVCM+ddllONdwX0LQOGdHBpv/ANO/huXna/4PKaUqKVbVXZ67/nec9qdV56adiuOrtudFZ2NAG13eJPyoqSXbdpVygZdaG7gB2Ci1/UVedKjThB2bb8kvdo5tF2k2iWGmn7gs/S79wUUFmF5NYuv97LWsyT9LP3BPS79wUcsVna6/3sazJP0u7cFl6XduHiol8gGZA6SAkczTk4HoIKztWItfWfzwM6zJqLS/Gb2KRilDhVpqFWFustpLHVGW0bwt9DSM4u1TNc/5/Hl35U7byyosGPBAIyKzXcTvuNoREWQVbX2akUbOM+vU0H/sF59b7a2Jt51TU0AGZVy1/l+tibuYT3nU/pVB1gsZlZRpuvGLTgeog5hdvDRksOtXfvKVWzq57jV6xR8R/wAPmnrFHxH/AA+aq7tC2zjt7oWPoa2cdvdCh/3OC5E9Sj8uWj1ij4j/AIfNZs1gjJpdeOzzVU9DWzjt7oWTNA2x2BkaAc/ZGSXxnBchqUfjZfLPM17Q9hq0ioKyeFzaLsfBRNjBrdFK7zmT2krqcFfKrNEc5Y4O2behSFpiZK0Ggc049CjpWVUc6aWEl0ZzzacQfI9C8/pvQrxjVai7VErd0l2fhrmssjr6Nx/QdSX6fQ7Z7JQ3GRm67Mgigrga1NcllBZvbu3CGA1r7NMMRQVrnTYo8630rfhof4sD1hq559bifcY0drj1bF5R4HHLqOm91v5yb5HqI42nKN1JefMtFotLIxVxAGzeeYDaoO0W4yuoRTi0OQUOx80zqkkg7XbOgbFPaPsQYBv5129F/TjTVSvkvJvut2LjfO3mcjGaUp01q0neXHsXv3czqszKDnXe00Y49X+dq52NWy1PowDea/54L11tyR5iUm82cj5rvtUrTGm+hyW/1vl5Nnxea0ejP9SDFec0UqS00OBGFVpGoY5eb+YfJeb05iMP08adWN7L1b9jbQcUndEgNb5OTZ2uVp0fahLG2QCgcAabt47VT7JqKwOBdLK4A4tMjqHmNFcYWBjQ1oAa0AAAUAAwAAXnMTOhJLoo2NrmmskbpJQASSABmTgB1qCt2m3EUjFK1oTn08w8Vx6zaQq9kAOBILqCpxOHRTPsWkb9/wAtgVnAYWMlrzX4RKmtbM5LVAXAullkNKk3XujHwEEjpJWj0aQfYmmjko04yulAqOLLeFK1FQBku2YXnMZxjU/wt9o9RwH4l908CwMmbm03Xc7Xb+seK7fYbzCxa0TWYhtrAdETQTNrQV44JJZ01Lf4VdoJ2vaHNNQVS2ObIyuBa4ZHHpBC0aAtrrFO2BxJssleCrjwbgCTF0UFW9BbxQuZi8FGa1oKz9SEo5HrOhZasLeKfA/3qpJQOhZfbpxh8sfkp5bNHz1qC7svLdysIO6CIiukyk/SBAQ6KXYQWHpBvAeLuxVEhesaTsDJ43RPHsu2jMHY4HeCvNNMaEtNmJvROlj2SRCuH3me809o5118FiIOCpydmuZUr03fWRwXEuLlOkQM45h0xP8AJfDpRnFk/lu8l0MvjRX1XwOu4s2sXB6WZxX9xy6rLaA8VAIHOCPmhizRvosSFmvhCA1OatEkVVunlDRU5KPbpmI5VPQ0lZMq5jJo8HYF8j0U2uQW0aTZxX9x3ksvSjOLJ3HeSX7+aM9Y6IrOBkF0Naot2nIhxu6Vpk1gb9hriefBRckt7RizJiSUNFSop9vvOrsUPabe+Q+1gNyNe6lWsc+mFGiqw61OnFzk8l2ixedXJ2BrnOexpJoAXNBoNtCd58FMC3RcrH/Mb5ry7/VSfs0vYPNfRa5P2aXsHmvGYyFHE1pVXUtf8ZdiRZjTglbWPUxbouVj/mN81m2drh7LmupndcD8l5X/AKmT9ml7B5qy6n2eUvMrmGNgBbRxFXE02DZtx3BUa2FoxpuSqZ8OIajbJnFbrSTbzUge0G9P1YACmWqp6zv4K2l4FTVkg56UFO1virUw1AIyOXRsV/Av/EvD0/gnh3dMxsPtSPfsbSMeDnHxaPwrutMIkjcw/aBHQdh6jQryvT9nfHa5CHOge83mPic4B458cXA5rpsesukYsL0dobhg8Bpp0i74kq/c32JzRdu4J5a/BpND90jCv5H+ymtK2PhYnMrR2bXcV7cWuHQQCq++2MB4aRreEdiI2Ovi9vvEDbjlmdqtMNbovUvUFaZA7QFEFg1K0lwkcMhwdgHDin3SOo3h+FegLyrVIXeGaMAHkj8Rv/N5XqMUlWg7wD2hU6FoVqsO9S81/Rrj+po2IiK4bAvhFV9RARFr0BE81FWnm8iuF2qTeUPdHmrKiypNArHqkOW+D9Sq2nbJwUzow69dDcaUzF7KvOvUF5bpya/aJXffcOpvsj5LoYBylUbfD90V8Q7ROJabTOGCpXy12oMFSqvb7W6Q45Lrbiok2YaW0i6Q0Hurs1G0VaJ7QGwN9gU4VzsGsbznjbgMT0VI36q6qy26SjfYhafrJCMB91vGeRs2ZnZX27Q2iYrLE2GFgawdrjtc47XHeufjMSo9Te/Qt0oeRCjU/wDffB+pVDX6B1kuMab3CAkOpSl0gEUx3jGu1esqkfSlYr8EclMWSU6ntNfFrVxa1SUYOS7DdN9Vnjkdne+QAnM55+Cn4NXd8nw/qWNlgo4HnVohiXLnpLESdlLkvY50ndkZZdVYgQXOe7mqGjwx8VPQWRjQA1oAGwBRGk9YY4JGw0LpS29QYANxFSd5ocOZa260/uvj/SoyjicSlKV2u9r0v+xsjTk1dIsYgbuCyEA3BV0a1/ufj/SshrV+6+P9K17DW+3mvcl0U+BYRANwWYZQKCsus7XPa10ZaHECta0rhlQYKwFaKtCdN2miMouO8oX0haPJaJhmzPna4ip6sD0VXPqjpIPZwR95gqOdlfyrTop1XfSNnDmkLyjTGj5LHLfYSGV9lw+weKeb55dNjBV9R6r8O9cBTnqstmsGiW2iO6cHjFjhm1wyKocRcHOjeLsjDRw+ThzFXnQmnWTinuyAYtO3nbvHNmFw62aEMgE0Q+uYMuO3a0/ku2mmrovpp7iL0BZeEnYD7rPbPUcPEhXlV/U+zERGVzS0yHAOBBDW5VB5y7wViDDltOQ2rPeGdursfvu3ntGNPhDD1r0DQ0l6FvNUdh8qKm2GIMaG9vSrRq3J7L27iD2in9K5VGspYptbndeX9FaE71CZREXVLIREQBERAap5Q1rnHJoJ7BVeOW22hgJJq449Z2r1HWuVzbJO5jXOdcIo0VNDgTTbQEnqXhUk5kN4mu5dXRySjKXevnMq11rNH21TukNSp3U/VB9sfedVlnafaftcRmxnPz5DwXdqZqc61ESy1bZwegy02NOxu93UMcR61Z4GsaGMaGsaKBoFAANgCzisXq9WO/0JU6atmarBYo4Y2xRNDI2igaNnmdpJxK60RcksBQ+tdl4SyTN2ht4dLDe/JTCxc0EEHI4FRlFSTi+0w1dWPDWiis9kALQRuVd0vZzBK+J2bHEY7Rm13WKHrXToHSoB4Nx6F5izi80crc8zVrHqoLRI2UPcyRopUUyx3jnPao71On/aX/D5K9gL7RWY1qkFaMsjYpySsmUP1Pn/AGl/Y3yX31Pn/aX/AA+SvdEopbTW+5jpZ8Sr6E1WMcgfLK+QDENJAFQagmmfRkrasQlVCc5Td5O5hyb3sPCi9J6ObI0ggEHA1UqsHBanEi8zy3S2qDmGsRw4pqR1HMeKxsukLfHgWcJ/FddTrBB7V6bJEDmFzOsDdysQxNWPaSjVku0q1it9qkpWOOMdbj0gA08VZdGWQj2nYupmf7YBdEVkaMgutjUqV51MpPIzKpKW9mximdXH/WOG9tewjzUKCpjVllXvfsaLvW4g07AO0Jhl/mjbj+2ZOk3rosqIi7xfCIiAIiIAq3pHUuxyyiV0d11auDDdbIfvtHaSKE7SVZEUoylF3i7GGk95rjjAAAAAAoABQADIAbAtiIomQiLRa5LrCebxQEXZdIuNoc0n6txLW9LQMetTapszS1rHD3gS7rqCPkFboJQ5ocMiAe1YTzsYKpr1qubUwSw/87BSmXCNzu1OAcMaHnIO8eOWlzmOLXAte00IIILSNhBxBX6SUNprVyy2rGaJrnDAPFWuHNebQkcxwVSvhFN60d/qaalBSd1vPHtFa0SMo14vjxU5HrRGc2vHUrSPo0sg918w/E0/0r7/ALc2flZfg/6qtsEjTs0itDWWLc/sKxdrPCM7w6WlWb/biDlZfh8lXtddRmwWZ00crnXXNqHAe643cCOchRlgpRTd/QjLDSSvc+2LWCKV4YwkuPMpeq850DBwT2u21HYvQg7CqqJbyrfMyqvhcvl5dFg0UbUXNvFsYFHOGZJyaK4ZYnq3qcYSk9WO8lG8nZEHLrDECR7WG5pWr1ji3O7CrP8A7dwctL8Hkvo+juDlZfg8la2GXH0LOyy4lY9Y4tz+wr76yR7GvP4SrSPo9s/KTdrP+q79HaoWWI3gwvIy4Q3vAADwUtgfH09jOyviQGibPPaaFkZjjP8A9JN33W5uPYOdXaw2NsTAxtaDacSSc3E7yupFbo4aFLNZviyxToxhu3hERWDaEREAREQBERAERReko7QcYiwt4pLmnqcK166ICQkma3MgKKt0xkwyYNp2qHtOkJYv+WJ0Y4128O+2oHWVi22iTG9XrqsXRLVZ1yAPJplQU6lv0ZbjF7D63Nh4p8lHiQtxCwm0nQYgKL4kbFvhma4VaQehbVSbOZ5KGGEgcbFo6anPqVl0VDM1p4Z7XHCgFTT8Rz7NikncEiiIsgKP09ZeFs80e1zHAdNKt8aKQRGr5C18jwWMK4WOW9G08yrmlbNwU0sexr3AdAJp4UUnoab6rHZXsXAjFqVmcGbtLMlmNc9zY2Cr3Gg/MnmAqT0K86PsjYY2xtyGZ2knEuPOTiorVfRtxvCvFJHjAHNrMwOk4E9Q2KwLq4WjqrWe9+nzedPCUdWOtLe+S/kIiK0WwiIgCIiAIiIAiIgCIiAIiIAiIgCqWsWhRH9fCLuPttGANftAbCratNpiD2OadoIWGjKdiliSrKqX0FohpAmkF4nFgOIA2OpvKhrHEXOEW0vu9GOJ6leWNAAAwAwHQsJGZGaIikRCIiAIiIDyn6QILlscdj2tf4XT4tK69RNDvlPCPaRZwQ4EigkIyA2lu0nI5Y40vFu0LBM9kksYe5go29Ujfi2tD1hSaqLCrpHN8dxT2ROo5yeV729wiIrZcCIiAIiIAiIgCIiAIiIAiIgCIiAIiIAiIgIizaLu2h8uF04tG0Odg78+8pdEQBERAEREAREQBERAEREAREQBERAEREAREQBERAEREAREQBERAEREAREQBERAEREAREQBERAEREAREQBERAEREAREQH//2Q==&quot;&gt;" style="text;html=1;strokeColor=none;fillColor=none;align=center;verticalAlign=middle;whiteSpace=wrap;rounded=0;" vertex="1" parent="1">
          <mxGeometry x="170" y="1070" width="250" height="215" as="geometry" />
        </mxCell>
        <mxCell id="BwzqPjI1iRtZFROYLctg-49" value="&lt;font style=&quot;font-size: 35px;&quot;&gt;Execute &lt;b&gt;DeFi Transactions&lt;/b&gt;&lt;/font&gt;" style="text;html=1;strokeColor=none;fillColor=none;align=center;verticalAlign=middle;whiteSpace=wrap;rounded=0;" vertex="1" parent="1">
          <mxGeometry x="40" y="1035" width="468.5" height="70" as="geometry" />
        </mxCell>
        <mxCell id="BwzqPjI1iRtZFROYLctg-57" style="edgeStyle=orthogonalEdgeStyle;shape=connector;curved=1;rounded=1;orthogonalLoop=1;jettySize=auto;html=1;exitX=1;exitY=0.5;exitDx=0;exitDy=0;entryX=0;entryY=0.5;entryDx=0;entryDy=0;labelBackgroundColor=default;strokeColor=default;strokeWidth=2;align=center;verticalAlign=middle;fontFamily=Helvetica;fontSize=11;fontColor=default;endArrow=classic;" edge="1" parent="1" source="BwzqPjI1iRtZFROYLctg-51" target="BwzqPjI1iRtZFROYLctg-55">
          <mxGeometry relative="1" as="geometry" />
        </mxCell>
        <mxCell id="BwzqPjI1iRtZFROYLctg-51" value="&lt;img alt=&quot;icono de concepto de autenticaciÃ³n de seguridad digital de huellas  dactilares 3d o icono de identidad de autorizaciÃ³n de personas 3d 10915783  PNG&quot; src=&quot;data:image/jpeg;base64,/9j/4AAQSkZJRgABAQAAAQABAAD/2wCEAAkGBxAREhIQEQ8PFRUTEA8SEBAQEA8VEBUSFhEXFhUVFRMYHSggGBolGxUVITEhJSkrLi4uFx8zODMsNygtLi0BCgoKDg0OGhAQGy0fICUtLS0tKy0tKy0tLS0tKy0tLS0tLS0tLS0tLi0tLS0tLTUtLS0tLS0tLS0tLS0tLS0tK//AABEIAOEA4QMBEQACEQEDEQH/xAAbAAEAAwEBAQEAAAAAAAAAAAAAAQQFAwIGB//EADsQAAIBAgMFBgQEBgAHAAAAAAABAgMRBBIhBTFBUWETInGBkcFCobHRIzJScmKCkrLh8BQzQ1Njc6L/xAAaAQEBAQEBAQEAAAAAAAAAAAAAAQIDBAUG/8QAMBEBAAICAAQDBwQBBQAAAAAAAAECAxEEEiExIkFREzJhcYGhsSOR0fAzBRTB4fH/2gAMAwEAAhEDEQA/AP3EAAAAAAAAAAAAAAAAAAAAAAAAAAAAAAAAAAAAAAAAAAAAAAAAAAAAAAAAAAAAAAAAAAAAAAAAAAAAAAAAAAAAAAAAAAAAAAAAAAAAAAAAAAAAAAAAAAAAAAAAAAAAAAAAAAAAAAAAAAAAAAAAAAAAAAhyXNAFJc16gSAAiUktW7Jb29wJnTPq7aoJ2z3/AGrT1M88PJbjcMTre/k64fadKe6XkxFol0x8Tjv2lcRp3AAAAAAAAAAAAAAAAAAAAAAK9bFJaLV/JAVp4hve/JAeO1C6SqwNOtOv1CLUKiYHxm2dsyryai7U07RS+K3xP2PPa+35/i+KnLblj3Y+/wAf4ZtzDxOlHM33b336X3LiWNtU5pnwvoNh7Xd1Cb8zrS/q+pwfGTvlu+lOr64AAAAAAAAAAAAAAAAAAAGfi8ZfuwenGXsgKqKoBJFAFwihtvaOSjUSeri4r+bS/wAzF51WXn4q01w2mPR8xnUY3e5K55n5mIbOHwlKrSjKlJPT83N8U1wO/JE16PsX/wBOpbFE4p6+vr/H92sxUMNC71k/WT5LoXpSHox0x8Hi3Pf8z6Qyu2bnm0V3d23HHfV8S1+a827bfdYCpmpwk+MI39D0x2fo8FubHWZ9FgrqAAAAAAAAAAAAAAAAAGbjcXfuRenxS59EBVSKqQqSABIHipID5rbl53j008eBi8bjSZcXPjtX1hjVO/Cx5X5SYms9XDZOLq4ap3dU334P8rXPoy0tNZ6Pbw/FTin4ejar4iVWWeX8seEVyLNptO5cOI4i2a+5+iaMW2kldtpJdQ41rNp1D9BwtLJCMP0xivRHqiNQ/T46clYr6OpWwAAAAAAAAAAAAAAABmY3GZrwg9PikuPRAVUiqkigETqRjrJpLm2kFisz2hVntSivjv4KT9ht2jhsk+SFtaj+v1jL7DZ/tcno9PFQku7OL8Hr6Bicdq94Y+JV2xLUM2thWnmjx3r3R574/OHzOM4D2k89O7nBK+qs+pyfFvgvWdTC1Qi5tRhFyfKKbfyLHXsU4e9p1EPrNg7EdNqpVtm+GG/L1fU70x66y+vwvCRi8Vu7eOr3AAAAAAAAAAAAAAAADMx2MzXhB6fFJceiKKiVg1pJAAxcbtl/lp/1v2RNvdi4Tzv+zPdOpPvS/qm7elw9HPSvhr9nlwjxn/TF+4XmvPaPu8uMf1vzX2C7yekPE6D+Fp+D19CHtde9Glb/AIqpB8XzUi7S3D0vG69GrReaKlzSZdPBaJrMxL2qZmasTET3a2yYOLvuLEacpiI7PpKNW+/eVl1AAAAAAAAAAAAAAAAZePxma8IPTdKS49EVVSKsRXoCGwM2O1Izn2Si7SvFTv05cht6p4aa055n6M/ERp0W1FZpdfyx8uLI74+fLHinUflw7Oc+/J6fqk7Ly/wHbnpTw1/aHlxgvik/2x0+YN5J8oh5tDnJeSC/qfB0xGBnGz3remhpinEVmdT0c6NSDaVVXXPivEm1vjmI3jnTTx1aFNRsr3XdUbWyq2vzRrbxY8VslpW8FTjOKmtz/wBsHO9ZpOpaFOFg5LdKoEXqVS4R0AAAAAAAAAAAAABmbYxuW1OL701q+Kjz8Xu9SrCjSjZBXsgAZm3MVlioLfLf+3j6/cS9XC4+a258lLBzjRiqkleU7qEeUeLI9GWJy25I7R3HRppdvJtqTbjDnK+t+lwzFr79lHl5q/fqu/Bcd0Ir2Dt4MUa/9l4lGmuMpeGi+4X9SfSPumk6V1mU7cbO4JjJrpMOm0KjlLPF91JKNvhSW63AMYYisclo6/lwlHOm0u8lql8S+4b/AMc/D8JpLPHJxV3D6tAv4J54+q/sDEWlke6W7pJCHLisfNXmjyfRIPmpKO1KoEXqVS4R0AAAAAAAAAAABgfKUK3bVJ1X8Unl/YtI/L6lbmNLoQAAfM4+bqVmv4lBfT6tmZfU4eOTFv6mJ/Eq5Y7k1Tj0S0+4XF4cfNPzTiX2lRQjuTVOC4JLRv6sGPwU57d56y7YmcZWoUuEt/CTS1DlSLV/VurVacId13lLik7RXS/EOtbXv1jpH3c7wfBrqnf5BrlvHadibg/9tJBemSv96ElkknHdpKPhyBWeasxb5LjnTpSjOMczlHNZuySl77w4VrfJE1mda6K9TuVG484zj4PVe4dcfipyz8n1kXez5q4fKmNTp6CCKLFGYRfi76hEgAAAAAAAAAFLbVXLQqtf9uSXi1ZfUNVjqwtmRtBFalcCAESA+YwifbL98pfNsz5vpzOsH0Nmv8RPpOXnlbC5emL9kbObTlLjClN+Dy29xBn1yRHrMPWAllzz4xpScfF2SfzC543EV9ZecPCNpzlrlSsucpOyuFyTPStem3mcU450krSUXbc73t9AkbraK73tM1enF8pyj5Zb/UL2yfOCqu5TfWpHy0fuCv8Akn5Qmuu7Sf8ABNek/wDIKe/b6PWKj/y3zppejYTHPitHxfT4S+SF9+SN/RB83J7869XUOaQPdN6lJaGHenmGXUAAAAAAAAAAz9vxvh6i6J+kk/YN095jbOfcK1butBlIEMDP2hOFKMrWzSTS5+PgSXfFS2S2vJnbJUY5qstIxWVdW+C8vqSHr4jdtUr3lcxdWn2EpQ+Lu9bt8SvNTHaMsVso4Sg5U6rS4RivW7+iI9Wa8Rau/miVGUKTclbPOCS42jdtg54vkiI8tvDX4X7qv9sH9w1PXLHwgqK1KHWpOXkopAjrln5IrfkpL/2P/wCkvYLX/Jb6PeLVlRX/AI2/6pX9gmPre8t7BYeLp021ujF+5XgzWnntpdDgEEgTAo0cL+XzYZdgAAAAAAAAADnXpKcZQe6UXF+asFidTt8pgW4Nwlo02n4ortePNoBzSAAyNp4PNLtJStFJJvp066kl6sGaaxyxG9s6tU7Rxpwi1FaQjxb4t9SPXWvJE3vPXzesZJJRpR1y6ya4ze/03BMUTaZyW8+3yd6mJlRjGnG113qjav3nw9AxXHGa03t27QbZruThFqzUVKS5Sa3f7zEpw1IibTHycMasqpw/TDNLxm7/AEQdMXita30/Yxyt2cP0003+6TzP2Bi6za3x/CMYrSUP0whH+Z95/ULi67t6y97RX4mVfDGEPNL/ACEwe7NvWZl9NTjZJckl6Ir5lp3My9BEgAiUwrVoxtFLoGJewAAAAAAAAAABibbwDv20F+9L+4OtLeUqeGr30e8Fq6WAykCvjcP2kcvgG6Wms7hiYmSot04fmt3pvfrwjyI9+OJy+K3b0RQgqS7Sa73/AE4Pn+p9At7Tknkr285/4RhIXbq1NYxd3/FLgguSdRGOneftCcLHtKjnPcu/N8LcF7AvPs6RWvftC9GNGtKVV37tnJPTRbr9NCvNPtMUcvqo4ddrVzS3Xc5X4RXP5Ij02/Sxaj+yu0cPTnUlVz3SeaS6rdv4afIPPN746ckwq4CPaVk3+pzfgndeyDvk/Txa+j6Ur5gBIADtg6eaV+EdfPggT0hphgAAAAAAAAAAAADC2rs3LepTWm+UVw6roHal99JVsPXvo94S1dO4ZAK9TDRvncU2tVfmG4vMRqJYscJOTlOo7JXc59FyRNPf7alaxFO/o8VajquMIRtFaQj7vqG61jHE2tPXzl6xU1FdjDWzvOS+KXLwQTHWbT7S30+T1X/Ch2fxTtKp0XCISv6l+byjt/LzL8Onb4qlm+kFuXmwvv5PhH5/6XsDg32M+DqKy/b/ALcQ4Z8se0j4LOycC6d5S3vTwRXPPm9pqIaIeYAXAU4ObyrzfBINdmvRpKKSQc5nb2EAAAAAAAAAAAAAAYe1dm5b1Ka03yiuHVdA7UvvpKrh619HvCWrpYDKGBzrUlKLjwYaidTtWWBUISUNJSTWbj5DTrOa1rRNvJw2ds3I887Nr8q4eI065uJ5o5auOF2bKU3Kpuvd85MmmrcRWKaqt4jZqqVMzeml10XAunHHnmldQ0Ug4TL0EAJAU4ObyrzfBINdmtQoqCsvN8Ww5zO3QIAAAAAAAAAAAAAAAAMPamzct6lNab5RXDqugdqX30lWoVr6PeC1dOwYSAAAAJCpCJAAKdNzeVeb4JBrt3a9CioKy83xbDnM7dAgAAAAAAAAAAAAAAAAAAMTamzst6lNab5RXDqugdqX30lVoVr6PeC1dO4YAJABQCQAE06bm8sfN8EgvZr0KKgrLzfFsOczt0CAAAAAAAAAAAAAAAAAAAAAMTaezst6lNab5RXDqugdqX30lWoVb6MJaunYMgEhQCQJpU3N5Y+b4JBe3dr0KKgrLzfFsOczt0CAAAAAAAAAAAAAAAAAAAAAAADG2jsxp56a8YL6r7B1rffSVOnW5hZq6qouYZ1Kc6BpDqBdO+Hwk567lzfsgTMQ1aNGMFaK+78Q5zO3QIAAAAAAAAAAAAAAAAAAAAAAAAACvXwdOerjrzWj/wAhqLTCrLZEeE5eaTDXtEx2THjKXlZA9os0cHTjujrzerDM2mVgMgAAAAAAAAAAAAAAAAAAAAAAAAAAAAAAAAAAAAAAAAAAAAAAAAAAAAAAAAAAAAAAAAAAAAAAAAAAAAAAAAAAAAAAAAAAAAAAAAAAAAAAAAAAAAAAAAAAAAAAAAAAAAAAAAAAAAAAAAAAAAAAAAAAAAAAAAAAAAAAAAAAAAAAAAAAAAAAAAAAAAAAH//Z&quot;&gt;" style="text;html=1;strokeColor=none;fillColor=none;align=center;verticalAlign=middle;whiteSpace=wrap;rounded=0;" vertex="1" parent="1">
          <mxGeometry x="717.99" y="970" width="250" height="215" as="geometry" />
        </mxCell>
        <mxCell id="BwzqPjI1iRtZFROYLctg-52" value="&lt;font style=&quot;font-size: 35px;&quot;&gt;&lt;b&gt;Monitoring&lt;/b&gt; and &lt;b&gt;Authorization&lt;/b&gt;&lt;/font&gt;" style="text;html=1;strokeColor=none;fillColor=none;align=center;verticalAlign=middle;whiteSpace=wrap;rounded=0;" vertex="1" parent="1">
          <mxGeometry x="591.86" y="940" width="502.25" height="70" as="geometry" />
        </mxCell>
        <mxCell id="BwzqPjI1iRtZFROYLctg-55" value="&lt;font style=&quot;font-size: 40px;&quot;&gt;&lt;b&gt;End of Process&lt;/b&gt;&lt;/font&gt;" style="text;html=1;strokeColor=none;fillColor=none;align=center;verticalAlign=middle;whiteSpace=wrap;rounded=0;" vertex="1" parent="1">
          <mxGeometry x="1245" y="1142.5" width="320" height="70" as="geometry" />
        </mxCell>
        <mxCell id="BwzqPjI1iRtZFROYLctg-58" value="&lt;div style=&quot;line-height: 163%;&quot;&gt;&lt;h1 style=&quot;background-image: none; background-position: initial; background-size: initial; background-repeat: initial; background-attachment: initial; background-origin: initial; background-clip: initial; border: none; box-sizing: border-box; margin: 0.25em 0px 0.25rem; padding: 0px; vertical-align: baseline; line-height: 24.96px;&quot; class=&quot;type__headline__xs&quot;&gt;&lt;font color=&quot;#b2f8ff&quot; face=&quot;Helvetica&quot; style=&quot;font-size: 30px; font-weight: normal;&quot;&gt;This flowchart represents the steps in using Brahma Console v2 for DeFi management from a wallet.&lt;/font&gt;&lt;br&gt;&lt;/h1&gt;&lt;div&gt;&lt;font color=&quot;#b2f8ff&quot; face=&quot;Helvetica&quot; style=&quot;font-size: 30px; font-weight: normal;&quot;&gt;&lt;br&gt;&lt;/font&gt;&lt;/div&gt;&lt;div&gt;&lt;font color=&quot;#b2f8ff&quot; face=&quot;Helvetica&quot; style=&quot;font-size: 30px; font-weight: normal;&quot;&gt;Made by Catellatech&lt;/font&gt;&lt;/div&gt;&lt;/div&gt;" style="text;html=1;strokeColor=#B2F8FF;fillColor=#000000;align=center;verticalAlign=middle;whiteSpace=wrap;rounded=1;fontSize=20;fontFamily=Architects Daughter;glass=0;labelBackgroundColor=none;fontColor=#ffffff;gradientColor=#474747;strokeWidth=2;shadow=0;" vertex="1" parent="1">
          <mxGeometry x="571.99" y="1220" width="542.02" height="170" as="geometry" />
        </mxCell>
        <mxCell id="BwzqPjI1iRtZFROYLctg-59" value="" style="endArrow=none;html=1;rounded=0;" edge="1" parent="1">
          <mxGeometry relative="1" as="geometry">
            <mxPoint y="1400" as="sourcePoint" />
            <mxPoint x="1650" y="1400" as="targetPoint" />
          </mxGeometry>
        </mxCell>
        <mxCell id="BwzqPjI1iRtZFROYLctg-60" value="" style="resizable=0;html=1;whiteSpace=wrap;align=right;verticalAlign=bottom;" connectable="0" vertex="1" parent="BwzqPjI1iRtZFROYLctg-59">
          <mxGeometry x="1" relative="1" as="geometry" />
        </mxCell>
      </root>
    </mxGraphModel>
  </diagram>
</mxfile>
